<svg width="280" height="90" viewBox="0 0 280 90" fill="none" xmlns="http://www.w3.org/2000/svg">
<g clip-path="url(#clip0_365_425)">
<rect width="280" height="90" fill="white"/>
<g clip-path="url(#clip1_365_425)">
<path fill-rule="evenodd" clip-rule="evenodd" d="M28.3942 20.9105C32.027 15.1895 36.9157 10.3443 42.6724 6.76295L43.2579 7.3485L53.7136 17.8039L57.542 21.6321L65.9124 30.0027C63.9341 30.0677 61.9662 30.5219 60.1334 31.3655L52.8036 24.0357C51.3663 24.9707 50.0041 26.0686 48.7432 27.3295C47.5823 28.4904 46.5595 29.7372 45.6749 31.0493L52.962 38.3365C52.0826 40.112 51.5764 42.0254 51.4435 43.9597L32.0287 24.545L28.3942 20.9105ZM42.071 27.4454C42.9984 26.1626 44.0398 24.9366 45.195 23.7814C46.4491 22.5273 47.7866 21.4074 49.1897 20.4218L42.0436 13.2757C39.3917 15.3156 37.0028 17.6806 34.9365 20.311L42.071 27.4454ZM47.2511 4.27057L51.04 8.05955C55.7721 6.0884 60.964 5 66.4101 5C71.97 5 77.265 6.1343 82.076 8.18415L85.854 4.40602C79.9685 1.58192 73.374 -2.15791e-06 66.4101 0C59.5582 5.39482e-07 53.064 1.53139 47.2511 4.27057ZM90.9735 13.4283L94.5335 9.8686C93.2165 8.8128 91.8385 7.82955 90.406 6.9249L88.166 9.1652L67.3094 30.0215C69.2373 30.1369 71.1471 30.6226 72.923 31.4788L80.226 24.1759C81.585 25.0799 82.875 26.1311 84.073 27.3295C85.309 28.5653 86.388 29.8983 87.311 31.3039L79.992 38.6229C80.835 40.4201 81.3015 42.3501 81.3915 44.2942L89.7115 35.9742L93.531 32.1552L100.922 24.7645L104.562 21.1248C103.661 19.6887 102.681 18.3071 101.629 16.986L99.689 18.9259L90.922 27.6927C89.951 26.32 88.8505 25.0106 87.6215 23.7814C86.429 22.5891 85.1615 21.5181 83.8335 20.5684L90.9735 13.4283ZM103.285 29.4725L107.068 25.6894C109.852 31.541 111.41 38.0885 111.41 45C111.41 51.852 109.879 58.346 107.14 64.159L103.351 60.37C105.322 55.638 106.41 50.446 106.41 45C106.41 39.4934 105.298 34.2468 103.285 29.4725ZM101.004 65.0945L104.647 68.738C101.066 74.4945 96.2205 79.383 90.4995 83.016L90.37 82.8865L67.4425 59.959L67.4262 59.9425C70.9143 59.706 74.3355 58.255 77.002 55.5885C79.8055 52.785 81.266 49.1461 81.3825 45.4728L85.802 49.8925C84.95 53.2795 83.1995 56.4875 80.55 59.1365C79.38 60.3065 78.101 61.3015 76.746 62.121L80.353 65.728C81.6655 64.8435 82.9125 63.8205 84.073 62.6595C86.656 60.0765 88.5555 57.0685 89.7705 53.861L93.599 57.689C92.1595 60.773 90.167 63.662 87.6215 66.208C86.466 67.363 85.24 68.4045 83.957 69.332L91.099 76.474C95.076 73.3495 98.4465 69.488 101.004 65.0945ZM82.183 81.77L85.957 85.5445C80.0455 88.3995 73.415 90 66.4101 90C59.4986 90 52.951 88.442 47.0994 85.6575L50.8826 81.8745C55.6568 83.8875 60.9035 85 66.4101 85C72.011 85 77.343 83.849 82.183 81.77ZM43.4546 82.2315L42.5348 83.151C41.0988 82.2505 39.7172 81.271 38.3961 80.219L39.9192 78.696L41.9573 76.6575L56.336 62.279C54.882 61.4305 53.5121 60.383 52.2658 59.1365C51.0958 57.9665 50.1011 56.688 49.2817 55.333L34.9316 69.683L32.8459 71.7685L31.3733 73.241C30.3137 71.928 29.3263 70.5545 28.4173 69.126L29.3104 68.233L32.0509 65.4925L47.1474 50.396L51.4648 46.0784C51.7146 49.5438 53.1643 52.939 55.8139 55.5885C58.5656 58.34 62.1213 59.798 65.7248 59.961L65.7079 59.9785L61.3407 64.3455L43.4546 82.2315ZM29.6579 60.8145L25.8852 64.587C23.0179 58.6655 21.4102 52.0205 21.4102 45C21.4102 37.9953 23.0106 31.3645 25.8658 25.4531L29.64 29.2274C27.5613 34.0669 26.4101 39.399 26.4101 45C26.4101 50.617 27.5679 55.9635 29.6579 60.8145ZM62.8851 48.5175C64.8307 50.463 67.9852 50.463 69.9309 48.5175C71.8765 46.5718 71.8765 43.4173 69.9309 41.4717C67.9852 39.526 64.8307 39.526 62.8851 41.4717C60.9394 43.4173 60.9394 46.5718 62.8851 48.5175ZM59.3369 37.9235C55.4316 41.8287 55.4316 48.1604 59.3369 52.0655C63.2421 55.971 69.5738 55.971 73.479 52.0655C77.384 48.1604 77.384 41.8287 73.479 37.9235C69.5738 34.0182 63.2421 34.0182 59.3369 37.9235Z" fill="#CC9966"/>
</g>
<path d="M152.584 36.019L146.956 36.019H141.327V67.4736H133.905V0H160.103V67.4736H152.584V36.019ZM152.584 28.8128V7.4221L141.327 7.4221V28.8128L152.584 28.8128Z" fill="#003826"/>
<path d="M194.576 0H187.154L187.154 28.8128H175.683L175.683 0H168.261V67.4736H175.683L175.683 36.019H187.154L187.154 67.4736H194.576V0Z" fill="#003826"/>
<path d="M225.001 7.4221V0H202.735V67.4736H225.001V59.4732H210.157L210.157 36.2432H225.001V28.7246H210.157L210.157 7.4221H225.001Z" fill="#003826"/>
<path d="M258.607 57.1599V0H251.185V57.1599C251.185 57.9309 250.96 58.6057 250.51 59.184C250.06 59.7623 249.321 60.0515 248.293 60.0515H243.473C242.445 60.0515 241.706 59.7623 241.256 59.184C240.807 58.6057 240.582 57.9309 240.582 57.1599V0H233.16V57.1599C233.16 58.5735 233.352 59.923 233.738 61.2083C234.124 62.4292 234.702 63.5216 235.473 64.4855C236.308 65.3852 237.369 66.1242 238.654 66.7025C240.003 67.2166 241.61 67.4736 243.473 67.4736H248.293C250.157 67.4736 251.731 67.2166 253.016 66.7025C254.366 66.1242 255.426 65.3852 256.197 64.4855C257.033 63.5216 257.643 62.4292 258.028 61.2083C258.414 59.923 258.607 58.5735 258.607 57.1599Z" fill="#003826"/>
<path d="M133.988 79.9648L136.338 74.5136H136.943L139.278 79.9648H138.688L137.902 78.1373H135.367L134.577 79.9648H133.988ZM135.58 77.6421H137.686L136.641 75.1464L135.58 77.6421ZM140.672 79.9648V74.0184H141.27V79.9648H140.672ZM143.089 79.9648V75.563H143.686V76.0739C143.827 75.8879 143.962 75.7543 144.091 75.6731C144.321 75.529 144.599 75.4569 144.924 75.4569C145.257 75.4569 145.537 75.5237 145.765 75.6573C145.993 75.791 146.193 76.0058 146.366 76.3019C146.552 76.0111 146.767 75.7975 147.011 75.6613C147.257 75.525 147.551 75.4569 147.891 75.4569C148.486 75.4569 148.946 75.6639 149.271 76.0779C149.507 76.3792 149.625 76.8036 149.625 77.3513V79.9648H149.027V77.4102C149.027 76.9726 148.946 76.6438 148.783 76.4237C148.574 76.1434 148.269 76.0032 147.868 76.0032C147.658 76.0032 147.464 76.0477 147.286 76.1368C147.111 76.2233 146.969 76.3464 146.862 76.5063C146.725 76.708 146.657 77.0093 146.657 77.4102V79.9648H146.06V77.4023C146.06 76.9569 145.968 76.6255 145.785 76.408C145.557 76.1381 145.252 76.0032 144.869 76.0032C144.497 76.0032 144.206 76.1263 143.996 76.3726C143.789 76.6189 143.686 76.9622 143.686 77.4023V79.9648H143.089ZM155.932 75.563V79.9648H155.334V79.1906C155.099 79.5076 154.851 79.7343 154.592 79.8705C154.332 80.0041 154.015 80.071 153.64 80.071C152.964 80.071 152.404 79.8548 151.958 79.4225C151.505 78.9823 151.278 78.4334 151.278 77.7757C151.278 77.1495 151.483 76.6163 151.891 76.1761C152.337 75.6966 152.904 75.4569 153.593 75.4569C153.978 75.4569 154.31 75.5276 154.588 75.6691C154.865 75.8106 155.114 76.0346 155.334 76.3412V75.563H155.932ZM153.609 76.0032C153.127 76.0032 152.718 76.1722 152.383 76.5102C152.228 76.6674 152.108 76.8508 152.021 77.0604C151.929 77.2831 151.884 77.5072 151.884 77.7325C151.884 78.2277 152.046 78.6456 152.371 78.9862C152.712 79.3452 153.136 79.5247 153.644 79.5247C154.121 79.5247 154.522 79.3544 154.847 79.0137C155.172 78.6679 155.334 78.2447 155.334 77.7443C155.334 77.2465 155.173 76.8377 154.851 76.5181C154.505 76.1748 154.091 76.0032 153.609 76.0032ZM158.324 79.9648V76.1015H157.373V75.563H158.324V74.0184H158.922V75.563H159.908V76.1015H158.922V79.9648H158.324ZM162.12 81.5094L162.839 79.8234L161.13 75.563H161.778L163.17 79.0727L164.663 75.563H165.3L162.753 81.5094H162.12ZM169.72 79.9648V74.0184H170.317V76.1329C170.466 75.9154 170.66 75.749 170.899 75.6338C171.14 75.5158 171.411 75.4569 171.712 75.4569C172.032 75.4569 172.324 75.5172 172.589 75.6377C172.853 75.7556 173.068 75.922 173.233 76.1368C173.487 76.4722 173.615 76.9595 173.615 77.5989V79.9648H173.017V77.5989C173.017 77.1037 172.919 76.7316 172.722 76.4827C172.604 76.3333 172.45 76.2167 172.259 76.1329C172.07 76.0464 171.87 76.0032 171.657 76.0032C171.435 76.0032 171.226 76.0517 171.032 76.1486C170.838 76.2429 170.68 76.3766 170.557 76.5495C170.397 76.7748 170.317 77.1076 170.317 77.5478V79.9648H169.72ZM179.316 75.563V79.9648H178.719V79.2849C178.433 79.8089 177.962 80.071 177.304 80.071C176.631 80.071 176.125 79.8378 175.787 79.3714C175.554 79.0517 175.437 78.5722 175.437 77.9329V75.563H176.035V77.9329C176.035 78.3941 176.103 78.7412 176.239 78.9744C176.344 79.1474 176.493 79.2823 176.687 79.3792C176.884 79.4762 177.104 79.5247 177.347 79.5247C177.827 79.5247 178.195 79.3413 178.452 78.9744C178.63 78.7177 178.719 78.3351 178.719 77.8268V75.563H179.316ZM181.139 79.9648V75.563H181.737V76.0739C181.878 75.8879 182.013 75.7543 182.141 75.6731C182.372 75.529 182.65 75.4569 182.975 75.4569C183.307 75.4569 183.588 75.5237 183.816 75.6573C184.044 75.791 184.244 76.0058 184.417 76.3019C184.603 76.0111 184.818 75.7975 185.062 75.6613C185.308 75.525 185.601 75.4569 185.942 75.4569C186.537 75.4569 186.997 75.6639 187.322 76.0779C187.557 76.3792 187.675 76.8036 187.675 77.3513V79.9648H187.078V77.4102C187.078 76.9726 186.997 76.6438 186.834 76.4237C186.625 76.1434 186.319 76.0032 185.918 76.0032C185.709 76.0032 185.515 76.0477 185.337 76.1368C185.161 76.2233 185.02 76.3464 184.912 76.5063C184.776 76.708 184.708 77.0093 184.708 77.4102V79.9648H184.111V77.4023C184.111 76.9569 184.019 76.6255 183.835 76.408C183.607 76.1381 183.302 76.0032 182.92 76.0032C182.548 76.0032 182.257 76.1263 182.047 76.3726C181.84 76.6189 181.737 76.9622 181.737 77.4023V79.9648H181.139ZM193.982 75.563V79.9648H193.385V79.1906C193.149 79.5076 192.902 79.7343 192.642 79.8705C192.383 80.0041 192.066 80.071 191.691 80.071C191.015 80.071 190.454 79.8548 190.009 79.4225C189.556 78.9823 189.329 78.4334 189.329 77.7757C189.329 77.1495 189.533 76.6163 189.942 76.1761C190.388 75.6966 190.955 75.4569 191.644 75.4569C192.029 75.4569 192.361 75.5276 192.638 75.6691C192.916 75.8106 193.165 76.0346 193.385 76.3412V75.563H193.982ZM191.66 76.0032C191.178 76.0032 190.769 76.1722 190.433 76.5102C190.279 76.6674 190.158 76.8508 190.072 77.0604C189.98 77.2831 189.934 77.5072 189.934 77.7325C189.934 78.2277 190.097 78.6456 190.422 78.9862C190.762 79.3452 191.187 79.5247 191.695 79.5247C192.172 79.5247 192.573 79.3544 192.898 79.0137C193.223 78.6679 193.385 78.2447 193.385 77.7443C193.385 77.2465 193.224 76.8377 192.902 76.5181C192.556 76.1748 192.142 76.0032 191.66 76.0032ZM195.805 79.9648V75.563H196.403V76.1329C196.772 75.6822 197.242 75.4569 197.814 75.4569C198.456 75.4569 198.955 75.6862 199.311 76.1447C199.455 76.3307 199.556 76.5364 199.614 76.7617C199.671 76.9844 199.7 77.2818 199.7 77.6539V79.9648H199.103V77.6539C199.103 77.363 199.08 77.1285 199.036 76.9504C198.991 76.7722 198.917 76.6163 198.812 76.4827C198.56 76.163 198.204 76.0032 197.743 76.0032C197.253 76.0032 196.883 76.1827 196.635 76.5416C196.548 76.6674 196.488 76.805 196.454 76.9543C196.42 77.101 196.403 77.2989 196.403 77.5478V79.9648H195.805ZM201.523 79.9648V75.563H202.12V79.9648H201.523ZM201.523 75.0324V74.0184H202.12V75.0324H201.523ZM204.478 79.9648V76.1015H203.527V75.563H204.478V74.0184H205.075V75.563H206.062V76.1015H205.075V79.9648H204.478ZM211.736 75.563V79.9648H211.139V79.1906C210.903 79.5076 210.655 79.7343 210.396 79.8705C210.136 80.0041 209.819 80.071 209.445 80.071C208.769 80.071 208.208 79.8548 207.763 79.4225C207.309 78.9823 207.083 78.4334 207.083 77.7757C207.083 77.1495 207.287 76.6163 207.696 76.1761C208.141 75.6966 208.708 75.4569 209.397 75.4569C209.783 75.4569 210.114 75.5276 210.392 75.6691C210.67 75.8106 210.918 76.0346 211.139 76.3412V75.563H211.736ZM209.413 76.0032C208.931 76.0032 208.522 76.1722 208.187 76.5102C208.032 76.6674 207.912 76.8508 207.825 77.0604C207.734 77.2831 207.688 77.5072 207.688 77.7325C207.688 78.2277 207.85 78.6456 208.175 78.9862C208.516 79.3452 208.94 79.5247 209.449 79.5247C209.925 79.5247 210.326 79.3544 210.651 79.0137C210.976 78.6679 211.139 78.2447 211.139 77.7443C211.139 77.2465 210.977 76.8377 210.655 76.5181C210.309 76.1748 209.895 76.0032 209.413 76.0032ZM213.559 79.9648V75.563H214.156V76.1918C214.285 75.9429 214.443 75.7635 214.632 75.6534C214.82 75.5407 215.077 75.4752 215.402 75.4569V76.0464C214.571 76.125 214.156 76.577 214.156 77.4023V79.9648H213.559ZM216.832 79.9648V75.563H217.429V79.9648H216.832ZM216.832 75.0324V74.0184H217.429V75.0324H216.832ZM223.733 75.563V79.9648H223.135V79.1906C222.899 79.5076 222.652 79.7343 222.392 79.8705C222.133 80.0041 221.816 80.071 221.441 80.071C220.765 80.071 220.204 79.8548 219.759 79.4225C219.306 78.9823 219.079 78.4334 219.079 77.7757C219.079 77.1495 219.284 76.6163 219.692 76.1761C220.138 75.6966 220.705 75.4569 221.394 75.4569C221.779 75.4569 222.111 75.5276 222.388 75.6691C222.666 75.8106 222.915 76.0346 223.135 76.3412V75.563H223.733ZM221.41 76.0032C220.928 76.0032 220.519 76.1722 220.184 76.5102C220.029 76.6674 219.908 76.8508 219.822 77.0604C219.73 77.2831 219.684 77.5072 219.684 77.7325C219.684 78.2277 219.847 78.6456 220.172 78.9862C220.512 79.3452 220.937 79.5247 221.445 79.5247C221.922 79.5247 222.323 79.3544 222.648 79.0137C222.973 78.6679 223.135 78.2447 223.135 77.7443C223.135 77.2465 222.974 76.8377 222.652 76.5181C222.306 76.1748 221.892 76.0032 221.41 76.0032ZM225.555 79.9648V75.563H226.153V76.1329C226.522 75.6822 226.992 75.4569 227.564 75.4569C228.206 75.4569 228.705 75.6862 229.061 76.1447C229.205 76.3307 229.306 76.5364 229.364 76.7617C229.421 76.9844 229.45 77.2818 229.45 77.6539V79.9648H228.853V77.6539C228.853 77.363 228.831 77.1285 228.786 76.9504C228.741 76.7722 228.667 76.6163 228.562 76.4827C228.31 76.163 227.954 76.0032 227.493 76.0032C227.003 76.0032 226.634 76.1827 226.385 76.5416C226.298 76.6674 226.238 76.805 226.204 76.9543C226.17 77.101 226.153 77.2989 226.153 77.5478V79.9648H225.555ZM134.153 87.5831H136.334V88.0901H134.153V87.5831ZM145.337 87.9604H141.355C141.374 88.288 141.493 88.5932 141.713 88.8762C141.87 89.0779 142.068 89.2364 142.306 89.3517C142.548 89.467 142.802 89.5247 143.069 89.5247C143.404 89.5247 143.712 89.433 143.993 89.2495C144.276 89.0635 144.48 88.8185 144.606 88.5146H145.227C145.101 88.8736 144.885 89.1971 144.578 89.4854C144.164 89.8758 143.665 90.071 143.081 90.071C142.415 90.071 141.856 89.8351 141.403 89.3635C140.973 88.9155 140.758 88.3757 140.758 87.7443C140.758 87.0997 140.982 86.556 141.43 86.1132C141.873 85.6757 142.41 85.4569 143.041 85.4569C143.571 85.4569 144.041 85.6141 144.452 85.9285C144.893 86.2613 145.168 86.7028 145.278 87.253C145.317 87.4417 145.337 87.6775 145.337 87.9604ZM144.743 87.422C144.654 87.0447 144.496 86.7408 144.268 86.5102C143.938 86.1722 143.526 86.0032 143.034 86.0032C142.617 86.0032 142.255 86.1342 141.949 86.3962C141.642 86.6556 141.448 86.9975 141.367 87.422H144.743ZM150.681 88.6679H151.353C151.141 89.0714 150.91 89.3727 150.661 89.5718C150.242 89.9046 149.753 90.071 149.195 90.071C148.548 90.071 147.999 89.8679 147.549 89.4618C147.321 89.2548 147.14 89.0072 147.006 88.719C146.867 88.4124 146.798 88.0914 146.798 87.7561C146.798 87.1246 147.019 86.5862 147.462 86.1408C147.918 85.6848 148.483 85.4569 149.156 85.4569C149.654 85.4569 150.098 85.5866 150.488 85.846C150.881 86.1028 151.167 86.4539 151.345 86.8993H150.681C150.537 86.6556 150.365 86.463 150.166 86.3215C149.865 86.1093 149.525 86.0032 149.148 86.0032C148.677 86.0032 148.277 86.1578 147.949 86.467C147.782 86.6268 147.648 86.8233 147.549 87.0565C147.452 87.2897 147.403 87.5268 147.403 87.7679C147.403 88.284 147.592 88.7163 147.969 89.0648C148.302 89.3714 148.701 89.5247 149.168 89.5247C149.482 89.5247 149.756 89.4592 149.989 89.3282C150.222 89.1945 150.453 88.9744 150.681 88.6679ZM155.058 85.4569C155.766 85.4569 156.338 85.7032 156.776 86.1958C157.156 86.6255 157.346 87.1521 157.346 87.7757C157.346 88.457 157.115 89.0203 156.654 89.4657C156.24 89.8692 155.725 90.071 155.11 90.071C154.436 90.071 153.879 89.8574 153.439 89.4303C152.981 88.9849 152.751 88.4203 152.751 87.7364C152.751 87.2962 152.867 86.8875 153.097 86.5102C153.312 86.1617 153.607 85.8918 153.982 85.7006C154.301 85.5381 154.66 85.4569 155.058 85.4569ZM155.062 86.0032C154.827 86.0032 154.6 86.0477 154.382 86.1368C154.165 86.2259 153.98 86.3491 153.828 86.5063C153.687 86.6556 153.573 86.8443 153.486 87.0722C153.4 87.3002 153.357 87.5268 153.357 87.7521C153.357 88.2735 153.519 88.6993 153.844 89.0295C154.169 89.3596 154.585 89.5247 155.094 89.5247C155.576 89.5247 155.973 89.357 156.285 89.0216C156.589 88.6967 156.741 88.2827 156.741 87.7796C156.741 87.2713 156.591 86.8574 156.293 86.5377C155.96 86.1814 155.55 86.0032 155.062 86.0032ZM159 89.9648V85.563H159.597V86.1329C159.966 85.6822 160.437 85.4569 161.008 85.4569C161.65 85.4569 162.149 85.6862 162.505 86.1447C162.649 86.3307 162.75 86.5364 162.808 86.7617C162.866 86.9844 162.894 87.2818 162.894 87.6539V89.9648H162.297V87.6539C162.297 87.363 162.275 87.1285 162.23 86.9504C162.186 86.7722 162.111 86.6163 162.006 86.4827C161.755 86.163 161.398 86.0032 160.937 86.0032C160.447 86.0032 160.078 86.1827 159.829 86.5416C159.742 86.6674 159.682 86.805 159.648 86.9543C159.614 87.101 159.597 87.2989 159.597 87.5478V89.9648H159ZM166.855 85.4569C167.563 85.4569 168.135 85.7032 168.573 86.1958C168.953 86.6255 169.143 87.1521 169.143 87.7757C169.143 88.457 168.912 89.0203 168.451 89.4657C168.037 89.8692 167.522 90.071 166.906 90.071C166.233 90.071 165.676 89.8574 165.236 89.4303C164.778 88.9849 164.548 88.4203 164.548 87.7364C164.548 87.2962 164.664 86.8875 164.894 86.5102C165.109 86.1617 165.404 85.8918 165.778 85.7006C166.098 85.5381 166.457 85.4569 166.855 85.4569ZM166.859 86.0032C166.623 86.0032 166.397 86.0477 166.179 86.1368C165.962 86.2259 165.777 86.3491 165.625 86.5063C165.484 86.6556 165.37 86.8443 165.283 87.0722C165.197 87.3002 165.154 87.5268 165.154 87.7521C165.154 88.2735 165.316 88.6993 165.641 89.0295C165.966 89.3596 166.382 89.5247 166.891 89.5247C167.373 89.5247 167.77 89.357 168.082 89.0216C168.386 88.6967 168.537 88.2827 168.537 87.7796C168.537 87.2713 168.388 86.8574 168.089 86.5377C167.757 86.1814 167.347 86.0032 166.859 86.0032ZM170.797 89.9648V85.563H171.394V86.0739C171.535 85.8879 171.67 85.7543 171.799 85.6731C172.029 85.529 172.307 85.4569 172.632 85.4569C172.965 85.4569 173.245 85.5237 173.473 85.6573C173.701 85.791 173.901 86.0058 174.074 86.3019C174.26 86.0111 174.475 85.7975 174.719 85.6613C174.965 85.525 175.259 85.4569 175.599 85.4569C176.194 85.4569 176.654 85.6639 176.979 86.0779C177.215 86.3792 177.332 86.8036 177.332 87.3513V89.9648H176.735V87.4102C176.735 86.9726 176.654 86.6438 176.491 86.4237C176.282 86.1434 175.977 86.0032 175.576 86.0032C175.366 86.0032 175.172 86.0477 174.994 86.1368C174.818 86.2233 174.677 86.3464 174.57 86.5063C174.433 86.708 174.365 87.0093 174.365 87.4102V89.9648H173.768V87.4023C173.768 86.9569 173.676 86.6255 173.493 86.408C173.265 86.1381 172.959 86.0032 172.577 86.0032C172.205 86.0032 171.914 86.1263 171.704 86.3726C171.497 86.6189 171.394 86.9622 171.394 87.4023V89.9648H170.797ZM179.155 89.9648V85.563H179.753V89.9648H179.155ZM179.155 85.0324V84.0184H179.753V85.0324H179.155ZM185.286 88.6679H185.958C185.745 89.0714 185.515 89.3727 185.266 89.5718C184.847 89.9046 184.358 90.071 183.8 90.071C183.153 90.071 182.604 89.8679 182.153 89.4618C181.925 89.2548 181.745 89.0072 181.611 88.719C181.472 88.4124 181.403 88.0914 181.403 87.7561C181.403 87.1246 181.624 86.5862 182.067 86.1408C182.523 85.6848 183.087 85.4569 183.761 85.4569C184.259 85.4569 184.703 85.5866 185.093 85.846C185.486 86.1028 185.772 86.4539 185.95 86.8993H185.286C185.142 86.6556 184.97 86.463 184.771 86.3215C184.469 86.1093 184.13 86.0032 183.753 86.0032C183.281 86.0032 182.882 86.1578 182.554 86.467C182.386 86.6268 182.253 86.8233 182.153 87.0565C182.056 87.2897 182.008 87.5268 182.008 87.7679C182.008 88.284 182.197 88.7163 182.574 89.0648C182.907 89.3714 183.306 89.5247 183.773 89.5247C184.087 89.5247 184.361 89.4592 184.594 89.3282C184.827 89.1945 185.058 88.9744 185.286 88.6679ZM194.504 85.563V89.9648H193.907V89.2849C193.621 89.8089 193.15 90.071 192.492 90.071C191.819 90.071 191.313 89.8378 190.975 89.3714C190.742 89.0517 190.625 88.5722 190.625 87.9329V85.563H191.223V87.9329C191.223 88.3941 191.291 88.7412 191.427 88.9744C191.532 89.1474 191.681 89.2823 191.875 89.3792C192.072 89.4762 192.292 89.5247 192.535 89.5247C193.015 89.5247 193.383 89.3413 193.64 88.9744C193.818 88.7177 193.907 88.3351 193.907 87.8268V85.563H194.504ZM196.327 89.9648V85.563H196.925V86.1329C197.294 85.6822 197.764 85.4569 198.336 85.4569C198.977 85.4569 199.477 85.6862 199.833 86.1447C199.977 86.3307 200.078 86.5364 200.136 86.7617C200.193 86.9844 200.222 87.2818 200.222 87.6539V89.9648H199.625V87.6539C199.625 87.363 199.602 87.1285 199.558 86.9504C199.513 86.7722 199.439 86.6163 199.334 86.4827C199.082 86.163 198.726 86.0032 198.265 86.0032C197.775 86.0032 197.405 86.1827 197.156 86.5416C197.07 86.6674 197.01 86.805 196.976 86.9543C196.942 87.101 196.925 87.2989 196.925 87.5478V89.9648H196.327ZM202.045 89.9648V85.563H202.642V89.9648H202.045ZM202.045 85.0324V84.0184H202.642V85.0324H202.045ZM205.919 89.9648L204.068 85.563H204.677L206.218 89.2653L207.798 85.563H208.399L206.544 89.9648H205.919ZM213.983 87.9604H210.002C210.02 88.288 210.139 88.5932 210.36 88.8762C210.517 89.0779 210.715 89.2364 210.953 89.3517C211.194 89.467 211.448 89.5247 211.716 89.5247C212.051 89.5247 212.359 89.433 212.639 89.2495C212.922 89.0635 213.126 88.8185 213.252 88.5146H213.873C213.747 88.8736 213.531 89.1971 213.225 89.4854C212.811 89.8758 212.312 90.071 211.727 90.071C211.062 90.071 210.502 89.8351 210.049 89.3635C209.619 88.9155 209.405 88.3757 209.405 87.7443C209.405 87.0997 209.629 86.556 210.077 86.1132C210.519 85.6757 211.057 85.4569 211.688 85.4569C212.217 85.4569 212.688 85.6141 213.099 85.9285C213.539 86.2613 213.814 86.7028 213.924 87.253C213.964 87.4417 213.983 87.6775 213.983 87.9604ZM213.39 87.422C213.301 87.0447 213.142 86.7408 212.914 86.5102C212.584 86.1722 212.173 86.0032 211.68 86.0032C211.264 86.0032 210.902 86.1342 210.595 86.3962C210.289 86.6556 210.095 86.9975 210.014 87.422H213.39ZM215.613 89.9648V85.563H216.211V86.1918C216.339 85.9429 216.498 85.7635 216.686 85.6534C216.875 85.5407 217.132 85.4752 217.457 85.4569V86.0464C216.626 86.125 216.211 86.577 216.211 87.4023V89.9648H215.613ZM218.525 88.6679H219.115C219.13 88.9063 219.192 89.095 219.299 89.2338C219.446 89.4277 219.66 89.5247 219.94 89.5247C220.149 89.5247 220.322 89.4565 220.459 89.3203C220.605 89.1736 220.679 88.9862 220.679 88.7583C220.679 88.5565 220.622 88.4006 220.51 88.2906C220.4 88.1779 220.173 88.0521 219.83 87.9133C219.521 87.7875 219.331 87.7063 219.26 87.6696C219.189 87.6329 219.108 87.5727 219.016 87.4888C218.796 87.2844 218.686 87.0198 218.686 86.6949C218.686 86.3386 218.804 86.0425 219.04 85.8067C219.276 85.5735 219.573 85.4569 219.932 85.4569C220.288 85.4569 220.58 85.5669 220.808 85.787C221.039 86.0045 221.161 86.2914 221.174 86.6477H220.569C220.553 86.4277 220.489 86.2665 220.376 86.1643C220.258 86.0569 220.109 86.0032 219.928 86.0032C219.755 86.0032 219.607 86.0621 219.484 86.1801C219.356 86.3058 219.291 86.4578 219.291 86.636C219.291 86.8901 219.424 87.084 219.688 87.2176C219.775 87.2596 220.053 87.3788 220.522 87.5753C221.03 87.7875 221.284 88.1622 221.284 88.6993C221.284 89.1054 221.154 89.4382 220.895 89.6976C220.649 89.9465 220.33 90.071 219.94 90.071C219.675 90.071 219.438 90.0172 219.228 89.9098C219.019 89.7998 218.853 89.6452 218.729 89.4461C218.598 89.2312 218.53 88.9718 218.525 88.6679ZM222.82 89.9648V85.563H223.417V89.9648H222.82ZM222.82 85.0324V84.0184H223.417V85.0324H222.82ZM225.775 89.9648V86.1015H224.824V85.563H225.775V84.0184H226.372V85.563H227.359V86.1015H226.372V89.9648H225.775ZM229.57 91.5094L230.29 89.8234L228.58 85.563H229.229L230.62 89.0727L232.113 85.563H232.75L230.203 91.5094H229.57Z" fill="#003826"/>
</g>
<defs>
<clipPath id="clip0_365_425">
<rect width="280" height="90" fill="white"/>
</clipPath>
<clipPath id="clip1_365_425">
<rect width="90.05" height="90" fill="white" transform="translate(21.3643)"/>
</clipPath>
</defs>
</svg>
