<?xml version="1.0" encoding="UTF-8"?>
<svg width="800px" height="800px" viewBox="0 0 800 800" version="1.1" xmlns="http://www.w3.org/2000/svg" xmlns:xlink="http://www.w3.org/1999/xlink">
    <title>Economics Pattern</title>
    <g id="Economics" stroke="none" stroke-width="1" fill="none" fill-rule="evenodd" opacity="0.25">
        <!-- Chart Bar -->
        <g transform="translate(50, 50)" fill="#1565c0" fill-rule="nonzero">
            <rect x="0" y="80" width="20" height="20" rx="2"/>
            <rect x="30" y="60" width="20" height="40" rx="2"/>
            <rect x="60" y="40" width="20" height="60" rx="2"/>
            <rect x="90" y="20" width="20" height="80" rx="2"/>
            <path d="M0,100 L100,100" stroke="#1565c0" stroke-width="4"/>
        </g>
        <!-- Line Graph -->
        <g transform="translate(300, 100)" fill="#1565c0" fill-rule="nonzero">
            <path stroke="#1565c0" stroke-width="3" d="M0,80 L20,60 L40,70 L60,30 L80,50 L100,10"/>
            <circle cx="0" cy="80" r="4" />
            <circle cx="20" cy="60" r="4" />
            <circle cx="40" cy="70" r="4" />
            <circle cx="60" cy="30" r="4" />
            <circle cx="80" cy="50" r="4" />
            <circle cx="100" cy="10" r="4" />
            <path d="M0,100 L100,100" stroke="#1565c0" stroke-width="4"/>
        </g>
        <!-- Pie Chart -->
        <g transform="translate(500, 50)" fill="#1565c0" fill-rule="nonzero">
            <path d="M50,50 L50,0 A50,50 0 0,1 100,50 Z"/>
            <path d="M50,50 L100,50 A50,50 0 0,1 50,100 Z"/>
            <path d="M50,50 L50,100 A50,50 0 0,1 0,50 Z"/>
            <path d="M50,50 L0,50 A50,50 0 0,1 50,0 Z"/>
        </g>
        <!-- Computer -->
        <g transform="translate(100, 250)" fill="#1565c0" fill-rule="nonzero">
            <path d="M90,70 L10,70 L10,10 L90,10 L90,70 Z"/>
            <path d="M100,80 L0,80 L0,70 L100,70 L100,80 Z"/>
            <path d="M70,90 L30,90 L35,80 L65,80 L70,90 Z"/>
            <rect x="40" y="75" width="20" height="2" rx="1"/>
        </g>
        <!-- Code -->
        <g transform="translate(400, 250)" fill="#1565c0" fill-rule="nonzero">
            <path d="M30,20 L0,50 L30,80" stroke="#1565c0" stroke-width="6" fill="none" stroke-linecap="round" stroke-linejoin="round"/>
            <path d="M70,20 L100,50 L70,80" stroke="#1565c0" stroke-width="6" fill="none" stroke-linecap="round" stroke-linejoin="round"/>
            <path d="M40,90 L60,10" stroke="#1565c0" stroke-width="4" fill="none" stroke-linecap="round"/>
        </g>
        <!-- Money -->
        <g transform="translate(600, 300)" fill="#1565c0" fill-rule="nonzero">
            <circle cx="50" cy="50" r="40" stroke="#1565c0" stroke-width="6" fill="none"/>
            <path d="M50,30 C60,30 65,40 65,50 C65,60 60,70 50,70 C40,70 35,60 35,50 C35,40 40,30 50,30 Z" stroke="#1565c0" stroke-width="3" fill="none"/>
            <rect x="45" y="20" width="10" height="60" rx="2"/>
        </g>
        <!-- Database -->
        <g transform="translate(100, 450)" fill="#1565c0" fill-rule="nonzero">
            <path d="M50,100 C22.4,100 0,91 0,80 L0,20 C0,9 22.4,0 50,0 C77.6,0 100,9 100,20 L100,80 C100,91 77.6,100 50,100 Z M100,20 C100,31 77.6,40 50,40 C22.4,40 0,31 0,20 M100,50 C100,61 77.6,70 50,70 C22.4,70 0,61 0,50"/>
        </g>
        <!-- Statistics -->
        <g transform="translate(300, 500)" fill="#1565c0" fill-rule="nonzero">
            <path d="M5,50 L95,50" stroke="#1565c0" stroke-width="2"/>
            <path d="M50,5 L50,95" stroke="#1565c0" stroke-width="2"/>
            <circle cx="30" cy="30" r="5"/>
            <circle cx="70" cy="40" r="5"/>
            <circle cx="40" cy="70" r="5"/>
            <circle cx="60" cy="20" r="5"/>
            <circle cx="80" cy="60" r="5"/>
            <circle cx="20" cy="80" r="5"/>
        </g>
        <!-- Network -->
        <g transform="translate(600, 550)" fill="#1565c0" fill-rule="nonzero">
            <circle cx="20" cy="20" r="10"/>
            <circle cx="80" cy="20" r="10"/>
            <circle cx="20" cy="80" r="10"/>
            <circle cx="80" cy="80" r="10"/>
            <circle cx="50" cy="50" r="15"/>
            <path d="M28,28 L42,42 M58,42 L72,28 M28,72 L42,58 M58,58 L72,72" stroke="#1565c0" stroke-width="3"/>
        </g>
    </g>
</svg> 