<?xml version="1.0" encoding="UTF-8"?>
<svg width="800px" height="800px" viewBox="0 0 800 800" version="1.1" xmlns="http://www.w3.org/2000/svg" xmlns:xlink="http://www.w3.org/1999/xlink">
    <title>Design Technology Pattern</title>
    <g id="DesignTech" stroke="none" stroke-width="1" fill="none" fill-rule="evenodd" opacity="0.25">
        <!-- Pen Tool -->
        <g transform="translate(50, 50)" fill="#f0a500" fill-rule="nonzero">
            <path d="M80,0 L100,20 L40,80 L20,80 L0,60 L0,40 L60,0 L80,0 Z M70,25 L75,30 L30,75 L25,70 L70,25 Z"/>
            <circle cx="15" cy="65" r="5"/>
        </g>
        <!-- Color Palette -->
        <g transform="translate(250, 100)" fill="#f0a500" fill-rule="nonzero">
            <path d="M50,0 C22.4,0 0,22.4 0,50 C0,77.6 22.4,100 50,100 C55.5,100 60,95.5 60,90 C60,87.3 58.9,84.8 57.1,83 C55.3,81.1 54,78.5 54,76 C54,70.5 58.5,66 64,66 H80 C91,66 100,57 100,46 C100,20.7 77.3,0 50,0 Z"/>
            <circle cx="20" cy="30" r="10"/>
            <circle cx="80" cy="30" r="10"/>
            <circle cx="30" cy="70" r="10"/>
            <circle cx="70" cy="60" r="10"/>
        </g>
        <!-- 3D Cube -->
        <g transform="translate(500, 50)" fill="#f0a500" fill-rule="nonzero">
            <path d="M0,30 L50,0 L100,30 L50,60 L0,30 Z"/>
            <path d="M50,60 L50,100 L0,70 L0,30 L50,60 Z"/>
            <path d="M50,60 L100,30 L100,70 L50,100 L50,60 Z"/>
        </g>
        <!-- Camera -->
        <g transform="translate(50, 250)" fill="#f0a500" fill-rule="nonzero">
            <path d="M35,10 L65,10 L75,20 L95,20 C97.8,20 100,22.2 100,25 L100,85 C100,87.8 97.8,90 95,90 L5,90 C2.2,90 0,87.8 0,85 L0,25 C0,22.2 2.2,20 5,20 L25,20 L35,10 Z"/>
            <circle cx="50" cy="55" r="25" stroke="#f0a500" stroke-width="5" fill="none"/>
            <circle cx="85" cy="35" r="5"/>
        </g>
        <!-- Web Design -->
        <g transform="translate(300, 200)" fill="#f0a500" fill-rule="nonzero">
            <rect x="0" y="0" width="100" height="70" rx="5"/>
            <rect x="0" y="70" width="100" height="30" rx="5"/>
            <rect x="10" y="10" width="80" height="40" rx="3"/>
            <circle cx="20" cy="85" r="5"/>
            <circle cx="35" cy="85" r="5"/>
            <circle cx="50" cy="85" r="5"/>
            <rect x="65" y="80" width="25" height="10" rx="3"/>
        </g>
        <!-- Circuit -->
        <g transform="translate(500, 200)" fill="#f0a500" fill-rule="nonzero">
            <circle cx="10" cy="10" r="5"/>
            <circle cx="90" cy="10" r="5"/>
            <circle cx="10" cy="90" r="5"/>
            <circle cx="90" cy="90" r="5"/>
            <circle cx="50" cy="50" r="10"/>
            <path d="M10,10 L35,10 L35,50 L65,50 L65,10 L90,10 M10,90 L35,90 L35,50 M65,50 L65,90 L90,90" stroke="#f0a500" stroke-width="3" fill="none"/>
        </g>
        <!-- Ruler -->
        <g transform="translate(150, 350)" fill="#f0a500" fill-rule="nonzero">
            <rect x="0" y="40" width="100" height="20" rx="2"/>
            <path d="M10,40 L10,50 M20,40 L20,60 M30,40 L30,50 M40,40 L40,60 M50,40 L50,50 M60,40 L60,60 M70,40 L70,50 M80,40 L80,60 M90,40 L90,50" stroke="#f0a500" stroke-width="2"/>
        </g>
        <!-- Paint Brush -->
        <g transform="translate(300, 400)" fill="#f0a500" fill-rule="nonzero">
            <path d="M40,0 C30,0 20,10 20,20 C20,30 30,40 30,50 C30,60 15,100 15,100 L45,100 C45,100 30,60 30,50 C30,40 40,30 40,20 C40,10 50,0 40,0 Z"/>
            <path d="M60,0 C70,0 80,10 80,20 C80,30 70,40 70,50 C70,60 80,90 90,100 L60,100 C60,100 70,60 70,50 C70,40 60,30 60,20 C60,10 50,0 60,0 Z"/>
        </g>
        <!-- VR Headset -->
        <g transform="translate(500, 450)" fill="#f0a500" fill-rule="nonzero">
            <path d="M10,30 L90,30 L90,70 L10,70 L10,30 Z" rx="10"/>
            <rect x="25" y="45" width="20" height="10" rx="5"/>
            <rect x="55" y="45" width="20" height="10" rx="5"/>
            <path d="M0,50 L10,50 M90,50 L100,50" stroke="#f0a500" stroke-width="3"/>
        </g>
        <!-- Light Bulb -->
        <g transform="translate(650, 300)" fill="#f0a500" fill-rule="nonzero">
            <path d="M50,0 C30,0 15,15 15,35 C15,45 20,55 30,60 L30,85 L70,85 L70,60 C80,55 85,45 85,35 C85,15 70,0 50,0 Z"/>
            <path d="M30,85 L70,85 L70,95 L30,95 L30,85 Z"/>
            <path d="M40,25 L60,25 M40,40 L60,40" stroke="#f0a500" stroke-width="3"/>
        </g>
    </g>
</svg> 