<svg width="280" height="90" viewBox="0 0 280 90" fill="none" xmlns="http://www.w3.org/2000/svg">
<g clip-path="url(#clip0_365_390)">
<rect width="280" height="90" fill="white"/>
<g clip-path="url(#clip1_365_390)">
<path fill-rule="evenodd" clip-rule="evenodd" d="M28.9925 20.7983C32.6058 15.1079 37.4683 10.2888 43.1941 6.72666L43.7765 7.30907L54.176 17.7083L57.9839 21.516L66.3094 29.8417C64.3417 29.9063 62.3844 30.3581 60.5614 31.1972L53.2709 23.9067C51.8414 24.8367 50.4865 25.9287 49.2323 27.1829C48.0776 28.3376 47.0603 29.5776 46.1804 30.8827L53.4285 38.1308C52.5538 39.8968 52.0503 41.7999 51.9181 43.7238L32.6075 24.4133L28.9925 20.7983ZM42.5959 27.2982C43.5184 26.0223 44.5541 24.8028 45.7031 23.6538C46.9505 22.4064 48.2809 21.2925 49.6764 20.3122L42.5687 13.2044C39.931 15.2334 37.5549 17.5857 35.4997 20.202L42.5959 27.2982ZM47.7482 4.24766L51.5168 8.01631C56.2235 6.05573 61.3876 4.97317 66.8044 4.97317C72.3345 4.97317 77.6011 6.10139 82.3863 8.14024L86.144 4.38238C80.2901 1.57343 73.731 -2.14633e-06 66.8044 0C59.9893 5.36588e-07 53.5299 1.52317 47.7482 4.24766ZM91.236 13.3562L94.7769 9.81565C93.467 8.76551 92.0964 7.78754 90.6716 6.88774L88.4436 9.11602L67.6989 29.8604C69.6164 29.9751 71.516 30.4583 73.2824 31.3099L80.5462 24.0462C81.8979 24.9453 83.181 25.9909 84.3726 27.1829C85.6019 28.412 86.6751 29.7379 87.5932 31.136L80.3135 38.4157C81.1519 40.2033 81.6159 42.1229 81.7054 44.0566L89.9808 35.7812L93.7798 31.9827L101.131 24.6316L104.751 21.0115C103.855 19.5831 102.881 18.2089 101.834 16.8949L99.9048 18.8244L91.1848 27.5441C90.219 26.1788 89.1244 24.8764 87.902 23.6538C86.7159 22.4678 85.4552 21.4026 84.1343 20.458L91.236 13.3562ZM103.481 29.3144L107.244 25.5516C110.013 31.3717 111.563 37.8841 111.563 44.7585C111.563 51.5738 110.04 58.0329 107.315 63.8148L103.547 60.0461C105.507 55.3395 106.59 50.1753 106.59 44.7585C106.59 39.2815 105.483 34.063 103.481 29.3144ZM101.213 64.7452L104.836 68.3692C101.274 74.0948 96.4549 78.9571 90.7646 82.5706L90.6358 82.4418L67.8312 59.6373L67.815 59.6209C71.2845 59.3856 74.6873 57.9424 77.3395 55.2902C80.128 52.5018 81.5806 48.8824 81.6965 45.2289L86.0923 49.6247C85.2448 52.9936 83.5037 56.1844 80.8685 58.8192C79.7047 59.9829 78.4326 60.9726 77.0849 61.7877L80.6725 65.3753C81.978 64.4956 83.2183 63.4781 84.3726 62.3233C86.9417 59.7542 88.831 56.7623 90.0395 53.572L93.8474 57.3795C92.4157 60.4469 90.4339 63.3204 87.902 65.8528C86.7527 67.0016 85.5333 68.0375 84.2572 68.96L91.3609 76.0637C95.3165 72.9559 98.6689 69.1152 101.213 64.7452ZM82.4927 81.3313L86.2465 85.0855C80.3667 87.9252 73.7717 89.5171 66.8044 89.5171C59.93 89.5171 53.4175 87.9675 47.5973 85.1979L51.3602 81.4352C56.1088 83.4374 61.3274 84.5439 66.8044 84.5439C72.3753 84.5439 77.6787 83.3991 82.4927 81.3313ZM43.9721 81.7903L43.0572 82.7048C41.6289 81.8092 40.2547 80.8349 38.9407 79.7886L40.4556 78.2738L42.4828 76.2462L56.7844 61.9448C55.3382 61.1009 53.9756 60.059 52.736 58.8192C51.5723 57.6555 50.5829 56.3838 49.7679 55.0361L35.4948 69.3091L33.4203 71.3834L31.9556 72.848C30.9017 71.5421 29.9196 70.1759 29.0155 68.7551L29.9037 67.8669L32.6296 65.1411L47.6451 50.1256L51.9393 45.8312C52.1878 49.278 53.6297 52.6549 56.2651 55.2902C59.002 58.027 62.5386 59.4771 66.1228 59.6393L66.1059 59.6567L61.7622 64.0002L43.9721 81.7903ZM30.2494 60.4882L26.4969 64.2405C23.645 58.3507 22.0459 51.7414 22.0459 44.7585C22.0459 37.7914 23.6378 31.1962 26.4776 25.3165L30.2316 29.0705C28.1641 33.8841 27.0191 39.1876 27.0191 44.7585C27.0191 50.3454 28.1706 55.6632 30.2494 60.4882ZM63.2983 48.2571C65.2335 50.1922 68.3711 50.1922 70.3063 48.2571C72.2415 46.3219 72.2415 43.1843 70.3063 41.2491C68.3711 39.3139 65.2335 39.3139 63.2983 41.2491C61.3631 43.1843 61.3631 46.3219 63.2983 48.2571ZM59.7691 37.72C55.8848 41.6043 55.8848 47.9019 59.7691 51.7861C63.6534 55.6707 69.9511 55.6707 73.8354 51.7861C77.7194 47.9019 77.7194 41.6043 73.8354 37.72C69.9511 33.8357 63.6534 33.8357 59.7691 37.72Z" fill="#CC9966"/>
</g>
<path d="M152.516 35.8257L146.918 35.8257H141.32V67.1116H133.937V0H159.994V67.1116H152.516V35.8257ZM152.516 28.6582V7.38228L141.32 7.38228V28.6582L152.516 28.6582Z" fill="#003826"/>
<path d="M194.283 0H186.9L186.9 28.6582H175.491L175.491 0H168.109V67.1116H175.491L175.491 35.8257H186.9L186.9 67.1116H194.283V0Z" fill="#003826"/>
<path d="M224.545 7.38227V0H202.398V67.1116H224.545V59.1541H209.78L209.78 36.0488H224.545V28.5705H209.78L209.78 7.38227H224.545Z" fill="#003826"/>
<path d="M257.97 56.8532V0H250.588V56.8532C250.588 57.6201 250.364 58.2913 249.916 58.8664C249.469 59.4416 248.734 59.7293 247.711 59.7293H242.918C241.895 59.7293 241.16 59.4416 240.712 58.8664C240.265 58.2913 240.041 57.6201 240.041 56.8532V0H232.659V56.8532C232.659 58.2593 232.851 59.6015 233.234 60.8799C233.618 62.0942 234.193 63.1808 234.96 64.1395C235.791 65.0344 236.846 65.7694 238.124 66.3446C239.466 66.8559 241.064 67.1116 242.918 67.1116H247.711C249.565 67.1116 251.131 66.8559 252.409 66.3446C253.751 65.7694 254.806 65.0344 255.573 64.1395C256.404 63.1808 257.011 62.0942 257.394 60.8799C257.778 59.6015 257.97 58.2593 257.97 56.8532Z" fill="#003826"/>
<path d="M134.014 80.4822L136.21 75.3907H136.775L138.955 80.4822H138.405L137.671 78.7752H135.303L134.565 80.4822H134.014ZM135.501 78.3127H137.469L136.492 75.9817L135.501 78.3127ZM142.229 76.7159L143.833 80.4822H143.282L141.961 77.362L140.639 80.4822H140.089L141.7 76.7159H142.229ZM145.073 76.7159H145.859L147.118 79.7957L148.377 76.7159H149.162V80.4822H148.652V77.2812L147.338 80.4822H146.898L145.583 77.2812V80.4822H145.073V76.7159ZM154.617 76.7159V80.4822H154.136V79.781H154.121C153.759 80.3072 153.268 80.5703 152.649 80.5703C152.074 80.5703 151.594 80.3782 151.21 79.994C150.831 79.6171 150.641 79.1497 150.641 78.5917C150.641 78.0386 150.83 77.5712 151.206 77.1894C151.578 76.815 152.059 76.6278 152.649 76.6278C152.979 76.6278 153.26 76.6865 153.49 76.804C153.722 76.919 153.933 77.1074 154.121 77.3693H154.136V76.7159H154.617ZM152.653 77.0903C152.237 77.0903 151.884 77.2335 151.595 77.5198C151.299 77.8159 151.151 78.1793 151.151 78.61C151.151 79.0261 151.296 79.3785 151.584 79.6673C151.878 79.9609 152.237 80.1078 152.66 80.1078C153.069 80.1078 153.416 79.9646 153.703 79.6783C153.991 79.3895 154.136 79.0359 154.136 78.6174C154.136 78.1867 153.988 77.8196 153.692 77.5161C153.41 77.2323 153.064 77.0903 152.653 77.0903ZM155.945 76.7159H158.397V77.1784H157.424V80.4822H156.914V77.1784H155.945V76.7159ZM160.184 80.284V80.4822H159.674V76.7159H160.184V79.5608L162.39 76.9361V76.7159H162.9V80.4822H162.39V77.6593L160.184 80.284ZM164.548 76.7159H165.058V78.3201H167.161V76.7159H167.672V80.4822H167.161V78.7826H165.058V80.4822H164.548V76.7159ZM172.428 79.3809H172.99C172.598 80.1738 171.989 80.5703 171.162 80.5703C170.582 80.5703 170.103 80.3831 169.727 80.0086C169.545 79.8275 169.403 79.6146 169.301 79.3699C169.2 79.1227 169.15 78.8682 169.15 78.6064C169.15 78.3421 169.203 78.0863 169.308 77.8392C169.413 77.5896 169.56 77.3705 169.749 77.1821C170.125 76.8126 170.595 76.6278 171.158 76.6278C171.586 76.6278 171.955 76.7318 172.263 76.9398C172.571 77.1454 172.816 77.4525 172.997 77.8612H172.428C172.335 77.6997 172.246 77.5761 172.16 77.4904C172.077 77.4023 171.972 77.324 171.845 77.2555C171.634 77.1454 171.404 77.0903 171.154 77.0903C170.731 77.0903 170.377 77.2335 170.094 77.5198C169.805 77.8061 169.66 78.1622 169.66 78.588C169.66 79.0138 169.809 79.3748 170.105 79.6709C170.396 79.9621 170.748 80.1078 171.162 80.1078C171.703 80.1078 172.125 79.8655 172.428 79.3809ZM175.012 80.4822H174.502V76.7159H175.012V80.4822ZM176.822 80.4822L175.305 78.5733L176.781 76.7159H177.379L175.933 78.533L177.475 80.4822H176.822ZM179.218 80.284V80.4822H178.708V76.7159H179.218V79.5608L181.424 76.9361V76.7159H181.934V80.4822H181.424V77.6593L179.218 80.284ZM184.165 75.3907H184.599C184.633 75.5424 184.703 75.6599 184.808 75.7431C184.913 75.8239 185.048 75.8643 185.212 75.8643C185.547 75.8643 185.751 75.7064 185.825 75.3907H186.258C186.216 75.5865 186.148 75.7456 186.052 75.8679C185.854 76.1273 185.574 76.257 185.212 76.257C184.933 76.257 184.704 76.1836 184.525 76.0368C184.347 75.8875 184.227 75.6721 184.165 75.3907ZM184.103 80.284V80.4822H183.593V76.7159H184.103V79.5608L186.309 76.9361V76.7159H186.819V80.4822H186.309V77.6593L184.103 80.284ZM191.304 76.7159H193.264V77.1784H191.814V80.4822H191.304V76.7159ZM197.202 76.7159H197.745L195.572 81.8037H195.029L195.653 80.3096L194.174 76.7159H194.779L195.961 79.6489L197.202 76.7159ZM198.982 76.7159H199.767L201.026 79.7957L202.285 76.7159H203.071V80.4822H202.561V77.2812L201.247 80.4822H200.806L199.492 77.2812V80.4822H198.982V76.7159ZM208.525 76.7159V80.4822H208.044V79.781H208.03C207.667 80.3072 207.177 80.5703 206.558 80.5703C205.982 80.5703 205.503 80.3782 205.119 79.994C204.739 79.6171 204.55 79.1497 204.55 78.5917C204.55 78.0386 204.738 77.5712 205.115 77.1894C205.487 76.815 205.968 76.6278 206.558 76.6278C206.888 76.6278 207.168 76.6865 207.398 76.804C207.631 76.919 207.841 77.1074 208.03 77.3693H208.044V76.7159H208.525ZM206.561 77.0903C206.145 77.0903 205.793 77.2335 205.504 77.5198C205.208 77.8159 205.06 78.1793 205.06 78.61C205.06 79.0261 205.204 79.3785 205.493 79.6673C205.787 79.9609 206.145 80.1078 206.569 80.1078C206.977 80.1078 207.325 79.9646 207.611 79.6783C207.9 79.3895 208.044 79.0359 208.044 78.6174C208.044 78.1867 207.896 77.8196 207.6 77.5161C207.319 77.2323 206.972 77.0903 206.561 77.0903ZM210.147 76.7159H210.657V78.3201H212.761V76.7159H213.271V80.4822H212.761V78.7826H210.657V80.4822H210.147V76.7159ZM215.414 80.284V80.4822H214.904V76.7159H215.414V79.5608L217.62 76.9361V76.7159H218.13V80.4822H217.62V77.6593L215.414 80.284ZM219.425 76.7159H221.877V77.1784H220.905V80.4822H220.394V77.1784H219.425V76.7159ZM226.84 76.7159V80.4822H226.359V79.781H226.344C225.982 80.3072 225.491 80.5703 224.872 80.5703C224.297 80.5703 223.817 80.3782 223.433 79.994C223.054 79.6171 222.864 79.1497 222.864 78.5917C222.864 78.0386 223.053 77.5712 223.429 77.1894C223.801 76.815 224.282 76.6278 224.872 76.6278C225.203 76.6278 225.483 76.6865 225.713 76.804C225.945 76.919 226.156 77.1074 226.344 77.3693H226.359V76.7159H226.84ZM224.876 77.0903C224.46 77.0903 224.107 77.2335 223.819 77.5198C223.522 77.8159 223.374 78.1793 223.374 78.61C223.374 79.0261 223.519 79.3785 223.808 79.6673C224.101 79.9609 224.46 80.1078 224.883 80.1078C225.292 80.1078 225.639 79.9646 225.926 79.6783C226.214 79.3895 226.359 79.0359 226.359 78.6174C226.359 78.1867 226.211 77.8196 225.915 77.5161C225.633 77.2323 225.287 77.0903 224.876 77.0903ZM228.461 81.8037V76.7159H228.942V77.362H228.957C229.158 77.1074 229.374 76.9239 229.607 76.8113C229.854 76.689 230.132 76.6278 230.44 76.6278C231.015 76.6278 231.487 76.8138 231.857 77.1858C232.041 77.3717 232.182 77.5908 232.283 77.8428C232.383 78.0925 232.433 78.3519 232.433 78.6211C232.433 79.1692 232.247 79.6281 231.875 79.9976C231.491 80.3794 231.008 80.5703 230.425 80.5703C229.787 80.5703 229.307 80.3072 228.986 79.781H228.972V81.8037H228.461ZM230.436 77.0903C230.015 77.0903 229.664 77.231 229.383 77.5125C229.089 77.811 228.942 78.1806 228.942 78.6211C228.942 79.0493 229.086 79.4054 229.372 79.6893C229.651 79.9683 229.998 80.1078 230.414 80.1078C230.84 80.1078 231.199 79.9621 231.49 79.6709C231.779 79.3821 231.923 79.0285 231.923 78.61C231.923 78.1842 231.776 77.822 231.483 77.5235C231.201 77.2347 230.852 77.0903 230.436 77.0903ZM233.912 76.7159H234.422V78.3201H236.526V76.7159H237.036V80.4822H236.526V78.7826H234.422V80.4822H233.912V76.7159ZM240.467 76.6278C241.035 76.6278 241.507 76.8162 241.884 77.1931C242.261 77.5724 242.45 78.0423 242.45 78.6027C242.45 79.1607 242.26 79.6281 241.881 80.005C241.504 80.3818 241.038 80.5703 240.482 80.5703C239.927 80.5703 239.46 80.3818 239.083 80.005C238.704 79.6281 238.514 79.1607 238.514 78.6027C238.514 78.0472 238.703 77.5773 239.08 77.1931C239.285 76.9851 239.537 76.8309 239.836 76.7306C240.042 76.6621 240.252 76.6278 240.467 76.6278ZM240.493 77.0903C240.077 77.0903 239.732 77.2286 239.458 77.5051C239.169 77.7963 239.025 78.1622 239.025 78.6027C239.025 79.0408 239.167 79.4029 239.451 79.6893C239.727 79.9683 240.071 80.1078 240.482 80.1078C240.893 80.1078 241.237 79.9683 241.514 79.6893C241.797 79.4029 241.939 79.0408 241.939 78.6027C241.939 78.1647 241.795 77.7988 241.506 77.5051C241.235 77.2286 240.897 77.0903 240.493 77.0903ZM134.169 87.2576H136.206V87.7312H134.169V87.2576ZM140.341 88.3809H140.907C141.186 88.8655 141.609 89.1078 142.177 89.1078C142.551 89.1078 142.878 88.9854 143.157 88.7407C143.299 88.6134 143.408 88.4776 143.484 88.3332C143.562 88.1864 143.621 88.0028 143.66 87.7826H141.52V87.3201H143.653C143.591 87.0509 143.5 86.8355 143.377 86.674C143.238 86.4904 143.063 86.3473 142.852 86.2445C142.642 86.1417 142.418 86.0903 142.181 86.0903C141.637 86.0903 141.213 86.3473 140.907 86.8612H140.338C140.428 86.6434 140.553 86.4452 140.712 86.2665C141.087 85.8407 141.578 85.6278 142.188 85.6278C142.763 85.6278 143.236 85.815 143.608 86.1894C143.79 86.373 143.93 86.5883 144.031 86.8355C144.133 87.0827 144.185 87.3372 144.185 87.599C144.185 87.8633 144.135 88.1191 144.034 88.3662C143.934 88.6134 143.793 88.8275 143.612 89.0086C143.24 89.3831 142.762 89.5703 142.177 89.5703C141.656 89.5703 141.22 89.4222 140.87 89.1261C140.66 88.9475 140.483 88.6991 140.341 88.3809ZM146.174 89.4822H145.663V85.7159H146.174V89.4822ZM147.983 89.4822L146.467 87.5733L147.943 85.7159H148.541L147.095 87.533L148.637 89.4822H147.983ZM151.536 85.6278C152.104 85.6278 152.576 85.8162 152.953 86.1931C153.33 86.5724 153.518 87.0423 153.518 87.6027C153.518 88.1607 153.329 88.6281 152.949 89.005C152.572 89.3818 152.106 89.5703 151.551 89.5703C150.995 89.5703 150.529 89.3818 150.152 89.005C149.773 88.6281 149.583 88.1607 149.583 87.6027C149.583 87.0472 149.772 86.5773 150.148 86.1931C150.354 85.9851 150.606 85.8309 150.905 85.7306C151.11 85.6621 151.321 85.6278 151.536 85.6278ZM151.562 86.0903C151.146 86.0903 150.801 86.2286 150.527 86.5051C150.238 86.7963 150.093 87.1622 150.093 87.6027C150.093 88.0408 150.235 88.4029 150.519 88.6893C150.796 88.9683 151.14 89.1078 151.551 89.1078C151.962 89.1078 152.306 88.9683 152.582 88.6893C152.866 88.4029 153.008 88.0408 153.008 87.6027C153.008 87.1647 152.864 86.7988 152.575 86.5051C152.303 86.2286 151.966 86.0903 151.562 86.0903ZM154.986 85.7159H155.496V87.3201H157.6V85.7159H158.11V89.4822H157.6V87.7826H155.496V89.4822H154.986V85.7159ZM161.541 85.6278C162.109 85.6278 162.581 85.8162 162.958 86.1931C163.335 86.5724 163.524 87.0423 163.524 87.6027C163.524 88.1607 163.334 88.6281 162.955 89.005C162.578 89.3818 162.111 89.5703 161.556 89.5703C161 89.5703 160.534 89.3818 160.157 89.005C159.778 88.6281 159.588 88.1607 159.588 87.6027C159.588 87.0472 159.777 86.5773 160.154 86.1931C160.359 85.9851 160.611 85.8309 160.91 85.7306C161.115 85.6621 161.326 85.6278 161.541 85.6278ZM161.567 86.0903C161.151 86.0903 160.806 86.2286 160.532 86.5051C160.243 86.7963 160.099 87.1622 160.099 87.6027C160.099 88.0408 160.241 88.4029 160.524 88.6893C160.801 88.9683 161.145 89.1078 161.556 89.1078C161.967 89.1078 162.311 88.9683 162.587 88.6893C162.871 88.4029 163.013 88.0408 163.013 87.6027C163.013 87.1647 162.869 86.7988 162.58 86.5051C162.308 86.2286 161.971 86.0903 161.567 86.0903ZM164.991 85.7159H165.777L167.036 88.7957L168.295 85.7159H169.08V89.4822H168.57V86.2812L167.256 89.4822H166.816L165.501 86.2812V89.4822H164.991V85.7159ZM171.22 89.284V89.4822H170.71V85.7159H171.22V88.5608L173.426 85.9361V85.7159H173.936V89.4822H173.426V86.6593L171.22 89.284ZM178.293 85.7159V89.4822H177.783V88.0652H176.813C176.559 88.0652 176.359 88.0469 176.215 88.0102C176.073 87.971 175.947 87.9025 175.837 87.8046C175.712 87.692 175.625 87.5623 175.576 87.4155C175.53 87.2687 175.507 87.0582 175.507 86.7841V85.7159H176.017V86.7841C176.017 87.0753 176.067 87.2797 176.167 87.3971C176.231 87.4754 176.309 87.5293 176.402 87.5587C176.495 87.588 176.632 87.6027 176.813 87.6027H177.783V85.7159H178.293ZM183.67 87.7826H180.304C180.343 88.0665 180.421 88.2977 180.539 88.4764C180.671 88.677 180.841 88.8324 181.049 88.9426C181.257 89.0527 181.484 89.1078 181.732 89.1078C182.324 89.1078 182.764 88.8239 183.053 88.2561H183.582C183.428 88.6232 183.234 88.9083 183.002 89.1114C182.649 89.4173 182.227 89.5703 181.735 89.5703C181.18 89.5703 180.715 89.3831 180.34 89.0086C179.964 88.6342 179.775 88.1692 179.775 87.6137C179.775 87.0435 179.972 86.5626 180.366 86.1711C180.731 85.8089 181.183 85.6278 181.724 85.6278C182.324 85.6278 182.797 85.826 183.145 86.2225C183.319 86.4207 183.447 86.6434 183.53 86.8906C183.614 87.1377 183.66 87.4351 183.67 87.7826ZM180.304 87.3201H183.119C183.053 87.0337 182.954 86.8049 182.822 86.6336C182.543 86.2714 182.179 86.0903 181.732 86.0903C181.384 86.0903 181.077 86.2017 180.81 86.4244C180.676 86.5394 180.569 86.6654 180.491 86.8025C180.415 86.9371 180.353 87.1096 180.304 87.3201ZM188.283 88.3809H188.845C188.453 89.1738 187.844 89.5703 187.017 89.5703C186.437 89.5703 185.958 89.3831 185.582 89.0086C185.401 88.8275 185.259 88.6146 185.156 88.3699C185.055 88.1227 185.005 87.8682 185.005 87.6064C185.005 87.3421 185.058 87.0863 185.163 86.8392C185.268 86.5896 185.415 86.3705 185.604 86.1821C185.981 85.8126 186.45 85.6278 187.013 85.6278C187.442 85.6278 187.81 85.7318 188.118 85.9398C188.427 86.1454 188.671 86.4525 188.852 86.8612H188.283C188.19 86.6997 188.101 86.5761 188.015 86.4904C187.932 86.4023 187.827 86.324 187.7 86.2555C187.489 86.1454 187.259 86.0903 187.01 86.0903C186.586 86.0903 186.233 86.2335 185.949 86.5198C185.66 86.8061 185.516 87.1622 185.516 87.588C185.516 88.0138 185.664 88.3748 185.96 88.6709C186.251 88.9621 186.603 89.1078 187.017 89.1078C187.558 89.1078 187.98 88.8655 188.283 88.3809ZM190.867 89.4822H190.357V85.7159H190.867V89.4822ZM192.677 89.4822L191.161 87.5733L192.636 85.7159H193.235L191.788 87.533L193.33 89.4822H192.677ZM195.073 89.284V89.4822H194.563V85.7159H195.073V88.5608L197.279 85.9361V85.7159H197.789V89.4822H197.279V86.6593L195.073 89.284ZM200.021 84.3907H200.454C200.488 84.5424 200.558 84.6599 200.663 84.7431C200.768 84.8239 200.903 84.8643 201.067 84.8643C201.402 84.8643 201.606 84.7064 201.68 84.3907H202.113C202.071 84.5865 202.003 84.7456 201.907 84.8679C201.709 85.1273 201.429 85.257 201.067 85.257C200.788 85.257 200.559 85.1836 200.38 85.0368C200.202 84.8875 200.082 84.6721 200.021 84.3907ZM199.958 89.284V89.4822H199.448V85.7159H199.958V88.5608L202.164 85.9361V85.7159H202.675V89.4822H202.164V86.6593L199.958 89.284ZM209.824 85.7159H210.367L208.194 90.8037H207.651L208.275 89.3096L206.795 85.7159H207.401L208.583 88.6489L209.824 85.7159ZM211.604 85.7159H212.114V87.3201H214.217V85.7159H214.727V89.4822H214.217V87.7826H212.114V89.4822H211.604V85.7159ZM216.87 89.284V89.4822H216.36V85.7159H216.87V88.5608L219.077 85.9361V85.7159H219.587V89.4822H219.077V86.6593L216.87 89.284ZM221.234 85.7159H222.585C222.974 85.7159 223.266 85.8236 223.459 86.0389C223.618 86.2151 223.697 86.4378 223.697 86.707C223.697 87.0741 223.531 87.3384 223.198 87.4999C223.401 87.566 223.558 87.6773 223.668 87.834C223.781 87.9881 223.837 88.1754 223.837 88.3956C223.837 88.7211 223.726 88.9842 223.503 89.1848C223.28 89.3831 222.988 89.4822 222.626 89.4822H221.234V85.7159ZM221.745 86.1784V87.3201H222.548C222.747 87.3201 222.902 87.2662 223.015 87.1585C223.13 87.0509 223.187 86.9052 223.187 86.7217C223.187 86.3595 222.974 86.1784 222.548 86.1784H221.745ZM221.745 87.7826V89.0197H222.571C222.805 89.0197 222.99 88.9646 223.125 88.8545C223.259 88.7419 223.327 88.5902 223.327 88.3993C223.327 88.2035 223.261 88.0518 223.128 87.9441C222.996 87.8364 222.81 87.7826 222.571 87.7826H221.745ZM229.041 87.7826H225.675C225.714 88.0665 225.793 88.2977 225.91 88.4764C226.042 88.677 226.212 88.8324 226.42 88.9426C226.629 89.0527 226.856 89.1078 227.103 89.1078C227.696 89.1078 228.136 88.8239 228.425 88.2561H228.953C228.799 88.6232 228.606 88.9083 228.373 89.1114C228.021 89.4173 227.599 89.5703 227.107 89.5703C226.551 89.5703 226.086 89.3831 225.712 89.0086C225.335 88.6342 225.147 88.1692 225.147 87.6137C225.147 87.0435 225.344 86.5626 225.738 86.1711C226.102 85.8089 226.555 85.6278 227.096 85.6278C227.696 85.6278 228.169 85.826 228.517 86.2225C228.69 86.4207 228.819 86.6434 228.902 86.8906C228.985 87.1377 229.032 87.4351 229.041 87.7826ZM225.675 87.3201H228.491C228.425 87.0337 228.326 86.8049 228.194 86.6336C227.915 86.2714 227.551 86.0903 227.103 86.0903C226.756 86.0903 226.449 86.2017 226.182 86.4244C226.047 86.5394 225.941 86.6654 225.863 86.8025C225.787 86.9371 225.724 87.1096 225.675 87.3201ZM230.52 90.8037V85.7159H231.001V86.362H231.016C231.216 86.1074 231.433 85.9239 231.665 85.8113C231.913 85.689 232.19 85.6278 232.499 85.6278C233.074 85.6278 233.546 85.8138 233.916 86.1858C234.099 86.3717 234.241 86.5908 234.341 86.8428C234.442 87.0925 234.492 87.3519 234.492 87.6211C234.492 88.1692 234.306 88.6281 233.934 88.9976C233.55 89.3794 233.066 89.5703 232.484 89.5703C231.845 89.5703 231.366 89.3072 231.045 88.781H231.03V90.8037H230.52ZM232.495 86.0903C232.074 86.0903 231.723 86.231 231.441 86.5125C231.148 86.811 231.001 87.1806 231.001 87.6211C231.001 88.0493 231.144 88.4054 231.43 88.6893C231.709 88.9683 232.057 89.1078 232.473 89.1078C232.899 89.1078 233.257 88.9621 233.549 88.6709C233.837 88.3821 233.982 88.0285 233.982 87.61C233.982 87.1842 233.835 86.822 233.541 86.5235C233.26 86.2347 232.911 86.0903 232.495 86.0903ZM239.105 88.3809H239.667C239.276 89.1738 238.666 89.5703 237.839 89.5703C237.259 89.5703 236.781 89.3831 236.404 89.0086C236.223 88.8275 236.081 88.6146 235.978 88.3699C235.878 88.1227 235.827 87.8682 235.827 87.6064C235.827 87.3421 235.88 87.0863 235.985 86.8392C236.09 86.5896 236.237 86.3705 236.426 86.1821C236.803 85.8126 237.272 85.6278 237.835 85.6278C238.264 85.6278 238.632 85.7318 238.94 85.9398C239.249 86.1454 239.493 86.4525 239.674 86.8612H239.105C239.012 86.6997 238.923 86.5761 238.837 86.4904C238.754 86.4023 238.649 86.324 238.522 86.2555C238.311 86.1454 238.081 86.0903 237.832 86.0903C237.408 86.0903 237.055 86.2335 236.771 86.5198C236.482 86.8061 236.338 87.1622 236.338 87.588C236.338 88.0138 236.486 88.3748 236.782 88.6709C237.073 88.9621 237.425 89.1078 237.839 89.1078C238.38 89.1078 238.802 88.8655 239.105 88.3809ZM241.7 89.284V89.4822H241.19V85.7159H241.7V88.5608L243.906 85.9361V85.7159H244.416V89.4822H243.906V86.6593L241.7 89.284ZM245.712 85.7159H248.164V86.1784H247.191V89.4822H246.681V86.1784H245.712V85.7159ZM253.041 87.7826H249.675C249.714 88.0665 249.793 88.2977 249.91 88.4764C250.042 88.677 250.212 88.8324 250.42 88.9426C250.628 89.0527 250.856 89.1078 251.103 89.1078C251.695 89.1078 252.136 88.8239 252.425 88.2561H252.953C252.799 88.6232 252.606 88.9083 252.373 89.1114C252.021 89.4173 251.599 89.5703 251.107 89.5703C250.551 89.5703 250.086 89.3831 249.712 89.0086C249.335 88.6342 249.147 88.1692 249.147 87.6137C249.147 87.0435 249.344 86.5626 249.738 86.1711C250.102 85.8089 250.555 85.6278 251.096 85.6278C251.695 85.6278 252.169 85.826 252.517 86.2225C252.69 86.4207 252.819 86.6434 252.902 86.8906C252.985 87.1377 253.032 87.4351 253.041 87.7826ZM249.675 87.3201H252.491C252.425 87.0337 252.326 86.8049 252.193 86.6336C251.915 86.2714 251.551 86.0903 251.103 86.0903C250.756 86.0903 250.449 86.2017 250.182 86.4244C250.047 86.5394 249.941 86.6654 249.863 86.8025C249.787 86.9371 249.724 87.1096 249.675 87.3201ZM254.168 85.7159H256.62V86.1784H255.647V89.4822H255.137V86.1784H254.168V85.7159Z" fill="#003826"/>
</g>
<defs>
<clipPath id="clip0_365_390">
<rect width="280" height="90" fill="white"/>
</clipPath>
<clipPath id="clip1_365_390">
<rect width="89.5668" height="89.5171" fill="white" transform="translate(22)"/>
</clipPath>
</defs>
</svg>
