<svg width="280" height="90" viewBox="0 0 280 90" fill="none" xmlns="http://www.w3.org/2000/svg">
<g clip-path="url(#clip0_365_402)">
<rect width="280" height="90" fill="#003826"/>
<g clip-path="url(#clip1_365_402)">
<path fill-rule="evenodd" clip-rule="evenodd" d="M28.9925 21.2808C32.6059 15.5905 37.4684 10.7713 43.1942 7.20912L43.7766 7.79153L54.1762 18.1908L57.9841 21.9986L66.3096 30.3243C64.3419 30.3889 62.3846 30.8407 60.5616 31.6797L53.2711 24.3892C51.8415 25.3192 50.4866 26.4113 49.2324 27.6655C48.0777 28.8202 47.0604 30.0602 46.1806 31.3653L53.4287 38.6134C52.554 40.3794 52.0505 42.2826 51.9183 44.2065L32.6075 24.8958L28.9925 21.2808ZM42.596 27.7808C43.5185 26.5048 44.5542 25.2854 45.7032 24.1363C46.9507 22.8889 48.281 21.7751 49.6766 20.7947L42.5688 13.6869C39.9311 15.7159 37.555 18.0682 35.4998 20.6845L42.596 27.7808ZM47.7483 4.7301L51.517 8.49877C56.2237 6.53819 61.3878 5.45562 66.8047 5.45562C72.3348 5.45562 77.6014 6.58384 82.3866 8.6227L86.1443 4.86483C80.2904 2.05586 73.7312 0.48242 66.8047 0.482422C59.9895 0.482422 53.5301 2.0056 47.7483 4.7301ZM91.2364 13.8387L94.7773 10.2981C93.4674 9.24798 92.0968 8.27 90.672 7.3702L88.444 9.5985L67.6992 30.343C69.6167 30.4577 71.5162 30.9409 73.2827 31.7925L80.5465 24.5287C81.8982 25.4279 83.1813 26.4735 84.3729 27.6655C85.6023 28.8946 86.6755 30.2205 87.5935 31.6186L80.3138 38.8983C81.1523 40.6859 81.6163 42.6055 81.7058 44.5392L89.9812 36.2638L93.7802 32.4653L101.131 25.1141L104.752 21.494C103.855 20.0656 102.881 18.6914 101.835 17.3774L99.9052 19.3069L91.1852 28.0267C90.2194 26.6613 89.1248 25.359 87.9024 24.1363C86.7163 22.9504 85.4556 21.8851 84.1347 20.9406L91.2364 13.8387ZM103.481 29.797L107.245 26.0341C110.014 31.8543 111.563 38.3668 111.563 45.2412C111.563 52.0565 110.04 58.5157 107.316 64.2975L103.547 60.5288C105.508 55.8222 106.59 50.658 106.59 45.2412C106.59 39.7642 105.484 34.5456 103.481 29.797ZM101.213 65.228L104.837 68.852C101.275 74.5776 96.4553 79.4399 90.7649 83.0534L90.6361 82.9246L67.8315 60.12L67.8153 60.1036C71.2847 59.8684 74.6876 58.4252 77.3398 55.773C80.1283 52.9845 81.5809 49.3651 81.6968 45.7115L86.0926 50.1074C85.2452 53.4763 83.5041 56.6671 80.8688 59.3019C79.7051 60.4657 78.4329 61.4553 77.0852 62.2704L80.6728 65.8581C81.9783 64.9784 83.2186 63.9608 84.3729 62.8061C86.9421 60.2369 88.8314 57.245 90.0399 54.0547L93.8478 57.8622C92.4161 60.9297 90.4342 63.8032 87.9024 66.3355C86.7531 67.4843 85.5336 68.5203 84.2575 69.4428L91.3612 76.5465C95.3169 73.4387 98.6694 69.598 101.213 65.228ZM82.493 81.8141L86.2468 85.5684C80.367 88.4081 73.772 90 66.8047 90C59.9302 90 53.4177 88.4504 47.5975 85.6808L51.3604 81.9181C56.109 83.9203 61.3276 85.0268 66.8047 85.0268C72.3756 85.0268 77.679 83.882 82.493 81.8141ZM43.9722 82.2731L43.0574 83.1877C41.629 82.292 40.2548 81.3178 38.9408 80.2714L40.4557 78.7566L42.483 76.729L56.7846 62.4276C55.3384 61.5836 53.9758 60.5418 52.7361 59.3019C51.5725 58.1382 50.5831 56.8666 49.768 55.5188L35.4949 69.7919L33.4204 71.8662L31.9556 73.3308C30.9017 72.0249 29.9197 70.6587 29.0155 69.2379L29.9038 68.3497L32.6297 65.6239L47.6452 50.6083L51.9394 46.3138C52.1879 49.7607 53.6299 53.1377 56.2653 55.773C59.0022 58.5097 62.5389 59.9599 66.1231 60.122L66.1062 60.1394L61.7624 64.483L43.9722 82.2731ZM30.2495 60.9709L26.4969 64.7232C23.645 58.8335 22.0459 52.2241 22.0459 45.2412C22.0459 38.2741 23.6378 31.6788 26.4776 25.7991L30.2316 29.5531C28.1641 34.3667 27.0191 39.6702 27.0191 45.2412C27.0191 50.8281 28.1707 56.1459 30.2495 60.9709ZM63.2985 48.7398C65.2337 50.6749 68.3713 50.6749 70.3066 48.7398C72.2418 46.8046 72.2418 43.667 70.3066 41.7318C68.3713 39.7966 65.2337 39.7966 63.2985 41.7318C61.3633 43.667 61.3633 46.8046 63.2985 48.7398ZM59.7693 38.2026C55.885 42.0869 55.885 48.3846 59.7693 52.2688C63.6537 56.1534 69.9514 56.1534 73.8357 52.2688C77.7198 48.3846 77.7198 42.0869 73.8357 38.2026C69.9514 34.3183 63.6537 34.3183 59.7693 38.2026Z" fill="#CC9966"/>
</g>
<path d="M152.517 36.3083L146.919 36.3083H141.32V67.5944H133.938V0.482422H159.995V67.5944H152.517V36.3083ZM152.517 29.1408V7.86474L141.32 7.86474V29.1408L152.517 29.1408Z" fill="white"/>
<path d="M194.284 0.482422H186.901L186.901 29.1408H175.492L175.492 0.482422H168.11V67.5944H175.492L175.492 36.3083H186.901L186.901 67.5944H194.284V0.482422Z" fill="white"/>
<path d="M224.545 7.86474V0.482422H202.398V67.5944H224.545V59.6369H209.781L209.781 36.5314H224.545V29.053H209.781L209.781 7.86474H224.545Z" fill="white"/>
<path d="M257.971 57.3359V0.482422H250.589V57.3359C250.589 58.1028 250.365 58.774 249.917 59.3492C249.47 59.9244 248.735 60.2121 247.712 60.2121H242.919C241.896 60.2121 241.161 59.9244 240.714 59.3492C240.266 58.774 240.042 58.1028 240.042 57.3359V0.482422H232.66V57.3359C232.66 58.742 232.852 60.0842 233.235 61.3626C233.619 62.577 234.194 63.6636 234.961 64.6223C235.792 65.5171 236.847 66.2522 238.125 66.8273C239.467 67.3387 241.065 67.5944 242.919 67.5944H247.712C249.566 67.5944 251.132 67.3387 252.41 66.8273C253.752 66.2522 254.807 65.5171 255.574 64.6223C256.405 63.6636 257.012 62.577 257.396 61.3626C257.779 60.0842 257.971 58.742 257.971 57.3359Z" fill="white"/>
<path d="M134.02 79.9648L136.358 74.5429H136.96L139.282 79.9648H138.695L137.914 78.1471H135.392L134.606 79.9648H134.02ZM135.603 77.6545H137.699L136.659 75.1722L135.603 77.6545ZM140.669 79.9648V74.0503H141.263V79.9648H140.669ZM143.072 79.9648V75.5866H143.666V76.0948C143.807 75.9098 143.941 75.7769 144.069 75.6961C144.298 75.5527 144.574 75.4811 144.898 75.4811C145.229 75.4811 145.507 75.5475 145.734 75.6804C145.961 75.8133 146.16 76.027 146.332 76.3215C146.517 76.0322 146.731 75.8199 146.973 75.6843C147.218 75.5488 147.51 75.4811 147.849 75.4811C148.441 75.4811 148.898 75.6869 149.221 76.0987C149.456 76.3984 149.573 76.8206 149.573 77.3653V79.9648H148.979V77.4239C148.979 76.9887 148.898 76.6616 148.736 76.4427C148.528 76.1639 148.224 76.0244 147.826 76.0244C147.617 76.0244 147.424 76.0687 147.247 76.1573C147.072 76.2433 146.932 76.3658 146.825 76.5248C146.689 76.7255 146.622 77.0252 146.622 77.4239V79.9648H146.027V77.4161C146.027 76.973 145.936 76.6434 145.754 76.4271C145.527 76.1586 145.223 76.0244 144.843 76.0244C144.473 76.0244 144.184 76.1469 143.975 76.3919C143.769 76.6369 143.666 76.9783 143.666 77.4161V79.9648H143.072ZM155.846 75.5866V79.9648H155.252V79.1947C155.018 79.5101 154.771 79.7355 154.513 79.871C154.255 80.0039 153.94 80.0704 153.567 80.0704C152.895 80.0704 152.337 79.8554 151.894 79.4254C151.443 78.9876 151.218 78.4416 151.218 77.7875C151.218 77.1646 151.421 76.6343 151.828 76.1964C152.271 75.7195 152.835 75.4811 153.52 75.4811C153.904 75.4811 154.233 75.5514 154.509 75.6922C154.786 75.8329 155.033 76.0557 155.252 76.3606V75.5866H155.846ZM153.536 76.0244C153.057 76.0244 152.65 76.1925 152.316 76.5287C152.163 76.6851 152.043 76.8675 151.957 77.076C151.866 77.2975 151.82 77.5203 151.82 77.7445C151.82 78.237 151.982 78.6527 152.305 78.9915C152.643 79.3485 153.066 79.527 153.571 79.527C154.046 79.527 154.444 79.3576 154.767 79.0188C155.091 78.6748 155.252 78.2539 155.252 77.7562C155.252 77.261 155.092 76.8545 154.771 76.5365C154.427 76.1951 154.016 76.0244 153.536 76.0244ZM158.226 79.9648V76.1222H157.28V75.5866H158.226V74.0503H158.82V75.5866H159.802V76.1222H158.82V79.9648H158.226ZM162.002 81.5011L162.717 79.8241L161.017 75.5866H161.662L163.045 79.0775L164.531 75.5866H165.164L162.631 81.5011H162.002ZM169.56 79.9648V74.0503H170.155V76.1534C170.303 75.9371 170.496 75.7716 170.733 75.657C170.973 75.5397 171.243 75.4811 171.542 75.4811C171.86 75.4811 172.151 75.541 172.414 75.6609C172.677 75.7782 172.891 75.9436 173.055 76.1573C173.308 76.4909 173.434 76.9757 173.434 77.6115V79.9648H172.84V77.6115C172.84 77.119 172.742 76.7489 172.547 76.5013C172.43 76.3528 172.276 76.2368 172.086 76.1534C171.898 76.0674 171.699 76.0244 171.488 76.0244C171.266 76.0244 171.059 76.0726 170.866 76.1691C170.673 76.2629 170.516 76.3958 170.393 76.5678C170.234 76.7919 170.155 77.1229 170.155 77.5607V79.9648H169.56ZM179.106 75.5866V79.9648H178.512V79.2886C178.228 79.8098 177.758 80.0704 177.104 80.0704C176.435 80.0704 175.932 79.8384 175.595 79.3746C175.363 79.0566 175.247 78.5797 175.247 77.9438V75.5866H175.842V77.9438C175.842 78.4025 175.909 78.7478 176.045 78.9797C176.149 79.1517 176.298 79.286 176.491 79.3824C176.686 79.4788 176.905 79.527 177.147 79.527C177.624 79.527 177.99 79.3446 178.246 78.9797C178.423 78.7243 178.512 78.3439 178.512 77.8383V75.5866H179.106ZM180.919 79.9648V75.5866H181.513V76.0948C181.654 75.9098 181.788 75.7769 181.916 75.6961C182.145 75.5527 182.421 75.4811 182.744 75.4811C183.075 75.4811 183.354 75.5475 183.581 75.6804C183.808 75.8133 184.007 76.027 184.179 76.3215C184.364 76.0322 184.578 75.8199 184.82 75.6843C185.065 75.5488 185.357 75.4811 185.696 75.4811C186.287 75.4811 186.745 75.6869 187.068 76.0987C187.302 76.3984 187.42 76.8206 187.42 77.3653V79.9648H186.826V77.4239C186.826 76.9887 186.745 76.6616 186.583 76.4427C186.375 76.1639 186.071 76.0244 185.672 76.0244C185.464 76.0244 185.271 76.0687 185.094 76.1573C184.919 76.2433 184.778 76.3658 184.672 76.5248C184.536 76.7255 184.468 77.0252 184.468 77.4239V79.9648H183.874V77.4161C183.874 76.973 183.783 76.6434 183.6 76.4271C183.374 76.1586 183.07 76.0244 182.69 76.0244C182.32 76.0244 182.03 76.1469 181.822 76.3919C181.616 76.6369 181.513 76.9783 181.513 77.4161V79.9648H180.919ZM193.693 75.5866V79.9648H193.099V79.1947C192.864 79.5101 192.618 79.7355 192.36 79.871C192.102 80.0039 191.787 80.0704 191.414 80.0704C190.742 80.0704 190.184 79.8554 189.741 79.4254C189.29 78.9876 189.065 78.4416 189.065 77.7875C189.065 77.1646 189.268 76.6343 189.675 76.1964C190.118 75.7195 190.682 75.4811 191.367 75.4811C191.75 75.4811 192.08 75.5514 192.356 75.6922C192.632 75.8329 192.88 76.0557 193.099 76.3606V75.5866H193.693ZM191.383 76.0244C190.903 76.0244 190.497 76.1925 190.163 76.5287C190.009 76.6851 189.89 76.8675 189.804 77.076C189.712 77.2975 189.667 77.5203 189.667 77.7445C189.667 78.237 189.828 78.6527 190.151 78.9915C190.49 79.3485 190.912 79.527 191.418 79.527C191.892 79.527 192.291 79.3576 192.614 79.0188C192.937 78.6748 193.099 78.2539 193.099 77.7562C193.099 77.261 192.939 76.8545 192.618 76.5365C192.274 76.1951 191.862 76.0244 191.383 76.0244ZM195.506 79.9648V75.5866H196.1V76.1534C196.468 75.7052 196.936 75.4811 197.504 75.4811C198.142 75.4811 198.639 75.7091 198.993 76.1652C199.136 76.3502 199.237 76.5548 199.294 76.7789C199.351 77.0004 199.38 77.2962 199.38 77.6663V79.9648H198.786V77.6663C198.786 77.377 198.764 77.1437 198.719 76.9665C198.675 76.7893 198.601 76.6343 198.497 76.5013C198.246 76.1834 197.892 76.0244 197.433 76.0244C196.946 76.0244 196.579 76.2029 196.331 76.56C196.245 76.6851 196.185 76.8219 196.151 76.9704C196.117 77.1164 196.1 77.3131 196.1 77.5607V79.9648H195.506ZM201.193 79.9648V75.5866H201.787V79.9648H201.193ZM201.193 75.0589V74.0503H201.787V75.0589H201.193ZM204.132 79.9648V76.1222H203.186V75.5866H204.132V74.0503H204.726V75.5866H205.707V76.1222H204.726V79.9648H204.132ZM211.351 75.5866V79.9648H210.757V79.1947C210.523 79.5101 210.276 79.7355 210.018 79.871C209.76 80.0039 209.445 80.0704 209.072 80.0704C208.4 80.0704 207.842 79.8554 207.399 79.4254C206.948 78.9876 206.723 78.4416 206.723 77.7875C206.723 77.1646 206.926 76.6343 207.333 76.1964C207.776 75.7195 208.34 75.4811 209.026 75.4811C209.409 75.4811 209.738 75.5514 210.015 75.6922C210.291 75.8329 210.538 76.0557 210.757 76.3606V75.5866H211.351ZM209.041 76.0244C208.562 76.0244 208.155 76.1925 207.822 76.5287C207.668 76.6851 207.548 76.8675 207.462 77.076C207.371 77.2975 207.325 77.5203 207.325 77.7445C207.325 78.237 207.487 78.6527 207.81 78.9915C208.149 79.3485 208.571 79.527 209.076 79.527C209.551 79.527 209.949 79.3576 210.273 79.0188C210.596 78.6748 210.757 78.2539 210.757 77.7562C210.757 77.261 210.597 76.8545 210.276 76.5365C209.932 76.1951 209.521 76.0244 209.041 76.0244ZM213.165 79.9648V75.5866H213.759V76.2121C213.886 75.9645 214.044 75.786 214.232 75.6765C214.419 75.5645 214.675 75.4993 214.998 75.4811V76.0674C214.172 76.1456 213.759 76.5952 213.759 77.4161V79.9648H213.165ZM216.42 79.9648V75.5866H217.014V79.9648H216.42ZM216.42 75.0589V74.0503H217.014V75.0589H216.42ZM223.284 75.5866V79.9648H222.69V79.1947C222.455 79.5101 222.209 79.7355 221.951 79.871C221.693 80.0039 221.377 80.0704 221.005 80.0704C220.332 80.0704 219.775 79.8554 219.332 79.4254C218.881 78.9876 218.655 78.4416 218.655 77.7875C218.655 77.1646 218.859 76.6343 219.265 76.1964C219.708 75.7195 220.272 75.4811 220.958 75.4811C221.341 75.4811 221.671 75.5514 221.947 75.6922C222.223 75.8329 222.471 76.0557 222.69 76.3606V75.5866H223.284ZM220.973 76.0244C220.494 76.0244 220.087 76.1925 219.754 76.5287C219.6 76.6851 219.48 76.8675 219.394 77.076C219.303 77.2975 219.257 77.5203 219.257 77.7445C219.257 78.237 219.419 78.6527 219.742 78.9915C220.081 79.3485 220.503 79.527 221.009 79.527C221.483 79.527 221.882 79.3576 222.205 79.0188C222.528 78.6748 222.69 78.2539 222.69 77.7562C222.69 77.261 222.529 76.8545 222.209 76.5365C221.865 76.1951 221.453 76.0244 220.973 76.0244ZM225.097 79.9648V75.5866H225.691V76.1534C226.058 75.7052 226.526 75.4811 227.094 75.4811C227.733 75.4811 228.229 75.7091 228.584 76.1652C228.727 76.3502 228.827 76.5548 228.885 76.7789C228.942 77.0004 228.971 77.2962 228.971 77.6663V79.9648H228.377V77.6663C228.377 77.377 228.354 77.1437 228.31 76.9665C228.266 76.7893 228.192 76.6343 228.087 76.5013C227.837 76.1834 227.483 76.0244 227.024 76.0244C226.537 76.0244 226.169 76.2029 225.922 76.56C225.836 76.6851 225.776 76.8219 225.742 76.9704C225.708 77.1164 225.691 77.3131 225.691 77.5607V79.9648H225.097ZM134.184 87.5959H136.354V88.1002H134.184V87.5959ZM145.308 87.9712H141.348C141.366 88.2969 141.485 88.6006 141.704 88.882C141.86 89.0827 142.057 89.2403 142.294 89.355C142.534 89.4697 142.787 89.527 143.053 89.527C143.386 89.527 143.692 89.4358 143.971 89.2534C144.253 89.0683 144.456 88.8247 144.581 88.5224H145.199C145.074 88.8794 144.859 89.2013 144.554 89.4879C144.142 89.8762 143.645 90.0704 143.064 90.0704C142.402 90.0704 141.846 89.8358 141.395 89.3667C140.968 88.9211 140.754 88.3842 140.754 87.7562C140.754 87.1151 140.977 86.5743 141.422 86.1339C141.863 85.6987 142.397 85.4811 143.025 85.4811C143.552 85.4811 144.019 85.6374 144.429 85.9502C144.866 86.2811 145.14 86.7203 145.249 87.2675C145.289 87.4552 145.308 87.6897 145.308 87.9712ZM144.718 87.4356C144.629 87.0604 144.472 86.758 144.245 86.5287C143.916 86.1925 143.507 86.0244 143.017 86.0244C142.603 86.0244 142.243 86.1547 141.938 86.4153C141.634 86.6733 141.441 87.0134 141.36 87.4356H144.718ZM150.624 88.6748H151.292C151.081 89.0762 150.852 89.3759 150.604 89.5739C150.187 89.9049 149.701 90.0704 149.146 90.0704C148.502 90.0704 147.956 89.8684 147.508 89.4645C147.281 89.2586 147.102 89.0123 146.969 88.7256C146.831 88.4207 146.762 88.1015 146.762 87.7679C146.762 87.1398 146.982 86.6043 147.422 86.1613C147.876 85.7078 148.437 85.4811 149.107 85.4811C149.602 85.4811 150.044 85.6101 150.432 85.8681C150.823 86.1235 151.107 86.4727 151.284 86.9157H150.624C150.48 86.6733 150.31 86.4818 150.112 86.3411C149.812 86.13 149.474 86.0244 149.099 86.0244C148.63 86.0244 148.233 86.1782 147.907 86.4857C147.74 86.6447 147.607 86.8401 147.508 87.0721C147.412 87.304 147.364 87.5399 147.364 87.7796C147.364 88.293 147.551 88.723 147.926 89.0697C148.257 89.3746 148.655 89.527 149.119 89.527C149.431 89.527 149.704 89.4619 149.936 89.3316C150.168 89.1987 150.397 88.9797 150.624 88.6748ZM154.978 85.4811C155.681 85.4811 156.251 85.726 156.686 86.216C157.064 86.6434 157.253 87.1672 157.253 87.7875C157.253 88.465 157.024 89.0253 156.565 89.4684C156.153 89.8697 155.641 90.0704 155.029 90.0704C154.359 90.0704 153.805 89.858 153.367 89.4332C152.911 88.9902 152.683 88.4286 152.683 87.7484C152.683 87.3105 152.798 86.904 153.027 86.5287C153.241 86.1821 153.534 85.9137 153.907 85.7234C154.225 85.5618 154.582 85.4811 154.978 85.4811ZM154.982 86.0244C154.747 86.0244 154.522 86.0687 154.305 86.1573C154.089 86.2459 153.905 86.3684 153.754 86.5248C153.613 86.6733 153.5 86.861 153.414 87.0877C153.328 87.3144 153.285 87.5399 153.285 87.764C153.285 88.2826 153.447 88.7061 153.77 89.0345C154.093 89.3628 154.507 89.527 155.013 89.527C155.492 89.527 155.887 89.3602 156.197 89.0267C156.5 88.7035 156.651 88.2917 156.651 87.7914C156.651 87.2858 156.502 86.874 156.205 86.5561C155.874 86.2016 155.466 86.0244 154.982 86.0244ZM158.898 89.9648V85.5866H159.492V86.1534C159.859 85.7052 160.327 85.4811 160.895 85.4811C161.534 85.4811 162.03 85.7091 162.385 86.1652C162.528 86.3502 162.628 86.5548 162.686 86.7789C162.743 87.0004 162.772 87.2962 162.772 87.6663V89.9648H162.178V87.6663C162.178 87.377 162.155 87.1437 162.111 86.9665C162.067 86.7893 161.993 86.6343 161.888 86.5013C161.638 86.1834 161.284 86.0244 160.825 86.0244C160.338 86.0244 159.97 86.2029 159.723 86.56C159.637 86.6851 159.577 86.8219 159.543 86.9704C159.509 87.1164 159.492 87.3131 159.492 87.5607V89.9648H158.898ZM166.711 85.4811C167.415 85.4811 167.985 85.726 168.42 86.216C168.798 86.6434 168.987 87.1672 168.987 87.7875C168.987 88.465 168.757 89.0253 168.299 89.4684C167.887 89.8697 167.375 90.0704 166.762 90.0704C166.092 90.0704 165.539 89.858 165.101 89.4332C164.645 88.9902 164.417 88.4286 164.417 87.7484C164.417 87.3105 164.531 86.904 164.761 86.5287C164.974 86.1821 165.268 85.9137 165.64 85.7234C165.958 85.5618 166.315 85.4811 166.711 85.4811ZM166.715 86.0244C166.481 86.0244 166.255 86.0687 166.039 86.1573C165.823 86.2459 165.639 86.3684 165.488 86.5248C165.347 86.6733 165.234 86.861 165.148 87.0877C165.062 87.3144 165.019 87.5399 165.019 87.764C165.019 88.2826 165.18 88.7061 165.504 89.0345C165.827 89.3628 166.241 89.527 166.747 89.527C167.226 89.527 167.621 89.3602 167.931 89.0267C168.233 88.7035 168.385 88.2917 168.385 87.7914C168.385 87.2858 168.236 86.874 167.939 86.5561C167.608 86.2016 167.2 86.0244 166.715 86.0244ZM170.632 89.9648V85.5866H171.226V86.0948C171.366 85.9098 171.501 85.7769 171.628 85.6961C171.858 85.5527 172.134 85.4811 172.457 85.4811C172.788 85.4811 173.067 85.5475 173.294 85.6804C173.52 85.8133 173.72 86.027 173.892 86.3215C174.077 86.0322 174.29 85.8199 174.533 85.6843C174.778 85.5488 175.07 85.4811 175.408 85.4811C176 85.4811 176.457 85.6869 176.781 86.0987C177.015 86.3984 177.132 86.8206 177.132 87.3653V89.9648H176.538V87.4239C176.538 86.9887 176.457 86.6616 176.296 86.4427C176.087 86.1639 175.784 86.0244 175.385 86.0244C175.177 86.0244 174.984 86.0687 174.806 86.1573C174.632 86.2433 174.491 86.3658 174.384 86.5248C174.249 86.7255 174.181 87.0252 174.181 87.4239V89.9648H173.587V87.4161C173.587 86.973 173.496 86.6434 173.313 86.4271C173.086 86.1586 172.783 86.0244 172.402 86.0244C172.032 86.0244 171.743 86.1469 171.535 86.3919C171.329 86.6369 171.226 86.9783 171.226 87.4161V89.9648H170.632ZM178.945 89.9648V85.5866H179.54V89.9648H178.945ZM178.945 85.0589V84.0503H179.54V85.0589H178.945ZM185.043 88.6748H185.711C185.5 89.0762 185.271 89.3759 185.023 89.5739C184.606 89.9049 184.12 90.0704 183.565 90.0704C182.922 90.0704 182.376 89.8684 181.927 89.4645C181.701 89.2586 181.521 89.0123 181.388 88.7256C181.25 88.4207 181.181 88.1015 181.181 87.7679C181.181 87.1398 181.401 86.6043 181.841 86.1613C182.295 85.7078 182.856 85.4811 183.526 85.4811C184.021 85.4811 184.463 85.6101 184.851 85.8681C185.242 86.1235 185.526 86.4727 185.704 86.9157H185.043C184.9 86.6733 184.729 86.4818 184.531 86.3411C184.231 86.13 183.894 86.0244 183.518 86.0244C183.049 86.0244 182.652 86.1782 182.326 86.4857C182.159 86.6447 182.026 86.8401 181.927 87.0721C181.831 87.304 181.783 87.5399 181.783 87.7796C181.783 88.293 181.97 88.723 182.346 89.0697C182.677 89.3746 183.074 89.527 183.538 89.527C183.851 89.527 184.123 89.4619 184.355 89.3316C184.587 89.1987 184.816 88.9797 185.043 88.6748ZM194.212 85.5866V89.9648H193.618V89.2886C193.334 89.8098 192.865 90.0704 192.211 90.0704C191.541 90.0704 191.038 89.8384 190.702 89.3746C190.47 89.0566 190.354 88.5797 190.354 87.9438V85.5866H190.948V87.9438C190.948 88.4025 191.016 88.7478 191.151 88.9797C191.256 89.1517 191.404 89.286 191.597 89.3824C191.792 89.4788 192.011 89.527 192.254 89.527C192.731 89.527 193.097 89.3446 193.352 88.9797C193.529 88.7243 193.618 88.3439 193.618 87.8383V85.5866H194.212ZM196.025 89.9648V85.5866H196.619V86.1534C196.987 85.7052 197.455 85.4811 198.023 85.4811C198.661 85.4811 199.158 85.7091 199.512 86.1652C199.656 86.3502 199.756 86.5548 199.813 86.7789C199.871 87.0004 199.899 87.2962 199.899 87.6663V89.9648H199.305V87.6663C199.305 87.377 199.283 87.1437 199.239 86.9665C199.194 86.7893 199.12 86.6343 199.016 86.5013C198.766 86.1834 198.411 86.0244 197.953 86.0244C197.465 86.0244 197.098 86.2029 196.85 86.56C196.764 86.6851 196.704 86.8219 196.67 86.9704C196.636 87.1164 196.619 87.3131 196.619 87.5607V89.9648H196.025ZM201.712 89.9648V85.5866H202.307V89.9648H201.712ZM201.712 85.0589V84.0503H202.307V85.0589H201.712ZM205.566 89.9648L203.725 85.5866H204.331L205.863 89.269L207.435 85.5866H208.033L206.188 89.9648H205.566ZM213.587 87.9712H209.627C209.645 88.2969 209.764 88.6006 209.982 88.882C210.139 89.0827 210.336 89.2403 210.573 89.355C210.813 89.4697 211.065 89.527 211.331 89.527C211.665 89.527 211.971 89.4358 212.25 89.2534C212.531 89.0683 212.735 88.8247 212.86 88.5224H213.477C213.352 88.8794 213.137 89.2013 212.832 89.4879C212.42 89.8762 211.924 90.0704 211.343 90.0704C210.681 90.0704 210.125 89.8358 209.674 89.3667C209.246 88.9211 209.033 88.3842 209.033 87.7562C209.033 87.1151 209.255 86.5743 209.701 86.1339C210.141 85.6987 210.676 85.4811 211.304 85.4811C211.83 85.4811 212.298 85.6374 212.707 85.9502C213.145 86.2811 213.419 86.7203 213.528 87.2675C213.567 87.4552 213.587 87.6897 213.587 87.9712ZM212.996 87.4356C212.908 87.0604 212.75 86.758 212.523 86.5287C212.195 86.1925 211.786 86.0244 211.296 86.0244C210.882 86.0244 210.522 86.1547 210.217 86.4153C209.912 86.6733 209.719 87.0134 209.638 87.4356H212.996ZM215.208 89.9648V85.5866H215.802V86.2121C215.93 85.9645 216.088 85.786 216.275 85.6765C216.463 85.5645 216.718 85.4993 217.042 85.4811V86.0674C216.215 86.1456 215.802 86.5952 215.802 87.4161V89.9648H215.208ZM218.104 88.6748H218.69C218.706 88.912 218.767 89.0996 218.874 89.2377C219.02 89.4306 219.233 89.527 219.511 89.527C219.72 89.527 219.892 89.4593 220.027 89.3237C220.173 89.1778 220.246 88.9915 220.246 88.7647C220.246 88.5641 220.19 88.409 220.078 88.2995C219.969 88.1875 219.743 88.0624 219.402 87.9243C219.094 87.7992 218.905 87.7184 218.835 87.6819C218.765 87.6454 218.684 87.5855 218.593 87.5021C218.374 87.2988 218.264 87.0356 218.264 86.7124C218.264 86.358 218.382 86.0635 218.616 85.829C218.851 85.597 219.147 85.4811 219.504 85.4811C219.858 85.4811 220.149 85.5905 220.375 85.8094C220.605 86.0257 220.726 86.3111 220.739 86.6655H220.137C220.121 86.4466 220.057 86.2863 219.945 86.1847C219.828 86.0779 219.68 86.0244 219.5 86.0244C219.328 86.0244 219.18 86.0831 219.058 86.2003C218.93 86.3254 218.866 86.4766 218.866 86.6538C218.866 86.9066 218.998 87.0994 219.261 87.2324C219.347 87.2741 219.623 87.3926 220.09 87.5881C220.596 87.7992 220.848 88.1719 220.848 88.7061C220.848 89.11 220.719 89.441 220.461 89.699C220.216 89.9466 219.9 90.0704 219.511 90.0704C219.248 90.0704 219.012 90.017 218.804 89.9101C218.595 89.8007 218.43 89.6469 218.307 89.4488C218.177 89.2351 218.109 88.9771 218.104 88.6748ZM222.376 89.9648V85.5866H222.97V89.9648H222.376ZM222.376 85.0589V84.0503H222.97V85.0589H222.376ZM225.315 89.9648V86.1222H224.369V85.5866H225.315V84.0503H225.909V85.5866H226.89V86.1222H225.909V89.9648H225.315ZM229.09 91.5011L229.806 89.8241L228.105 85.5866H228.75L230.134 89.0775L231.62 85.5866H232.253L229.72 91.5011H229.09Z" fill="white"/>
</g>
<defs>
<clipPath id="clip0_365_402">
<rect width="280" height="90" fill="white"/>
</clipPath>
<clipPath id="clip1_365_402">
<rect width="89.5673" height="89.5176" fill="white" transform="translate(22 0.482422)"/>
</clipPath>
</defs>
</svg>
