<svg width="280" height="90" viewBox="0 0 280 90" fill="none" xmlns="http://www.w3.org/2000/svg">
<g clip-path="url(#clip0_365_460)">
<rect width="280" height="90" fill="white"/>
<g clip-path="url(#clip1_365_460)">
<path fill-rule="evenodd" clip-rule="evenodd" d="M26.0768 20.9105C29.7097 15.1895 34.5984 10.3443 40.355 6.76295L40.9406 7.3485L51.3962 17.8039L55.2246 21.6321L63.5951 30.0027C61.6168 30.0677 59.6489 30.5219 57.8161 31.3655L50.4862 24.0357C49.049 24.9707 47.6868 26.0686 46.4258 27.3295C45.2649 28.4904 44.2421 29.7372 43.3575 31.0493L50.6447 38.3365C49.7653 40.112 49.2591 42.0254 49.1261 43.9597L29.7113 24.545L26.0768 20.9105ZM39.7537 27.4454C40.6811 26.1626 41.7224 24.9366 42.8776 23.7814C44.1318 22.5273 45.4693 21.4074 46.8724 20.4218L39.7263 13.2757C37.0743 15.3156 34.6854 17.6806 32.6192 20.311L39.7537 27.4454ZM44.9337 4.27057L48.7227 8.05955C53.4548 6.0884 58.6467 5 64.0928 5C69.6527 5 74.9477 6.1343 79.7587 8.18415L83.5367 4.40602C77.6512 1.58192 71.0567 -2.15791e-06 64.0928 0C57.2409 5.39482e-07 50.7467 1.53139 44.9337 4.27057ZM88.6562 13.4283L92.2162 9.8686C90.8992 8.8128 89.5212 7.82955 88.0887 6.9249L85.8487 9.1652L64.9921 30.0215C66.9199 30.1369 68.8297 30.6226 70.6057 31.4788L77.9087 24.1759C79.2677 25.0799 80.5577 26.1311 81.7557 27.3295C82.9917 28.5653 84.0707 29.8983 84.9937 31.3039L77.6747 38.6229C78.5177 40.4201 78.9842 42.3501 79.0742 44.2942L87.3942 35.9742L91.2137 32.1552L98.6042 24.7645L102.244 21.1248C101.343 19.6887 100.364 18.3071 99.3117 16.986L97.3717 18.9259L88.6047 27.6927C87.6337 26.32 86.5332 25.0106 85.3042 23.7814C84.1117 22.5891 82.8442 21.5181 81.5162 20.5684L88.6562 13.4283ZM100.967 29.4725L104.751 25.6894C107.535 31.541 109.093 38.0885 109.093 45C109.093 51.852 107.561 58.346 104.822 64.159L101.033 60.37C103.004 55.638 104.093 50.446 104.093 45C104.093 39.4934 102.98 34.2468 100.967 29.4725ZM98.6867 65.0945L102.33 68.738C98.7487 74.4945 93.9032 79.383 88.1822 83.016L88.0527 82.8865L65.1251 59.959L65.1088 59.9425C68.597 59.706 72.0182 58.255 74.6847 55.5885C77.4882 52.785 78.9487 49.1461 79.0652 45.4728L83.4847 49.8925C82.6327 53.2795 80.8822 56.4875 78.2327 59.1365C77.0627 60.3065 75.7837 61.3015 74.4287 62.121L78.0357 65.728C79.3482 64.8435 80.5952 63.8205 81.7557 62.6595C84.3387 60.0765 86.2382 57.0685 87.4532 53.861L91.2817 57.689C89.8422 60.773 87.8497 63.662 85.3042 66.208C84.1487 67.363 82.9227 68.4045 81.6397 69.332L88.7817 76.474C92.7587 73.3495 96.1292 69.488 98.6867 65.0945ZM79.8657 81.77L83.6397 85.5445C77.7282 88.3995 71.0977 90 64.0928 90C57.1812 90 50.6336 88.442 44.7821 85.6575L48.5652 81.8745C53.3395 83.8875 58.5862 85 64.0928 85C69.6937 85 75.0257 83.849 79.8657 81.77ZM41.1373 82.2315L40.2175 83.151C38.7814 82.2505 37.3998 81.271 36.0788 80.219L37.6018 78.696L39.64 76.6575L54.0187 62.279C52.5647 61.4305 51.1948 60.383 49.9484 59.1365C48.7785 57.9665 47.7838 56.688 46.9643 55.333L32.6142 69.683L30.5286 71.7685L29.0559 73.241C27.9963 71.928 27.009 70.5545 26.1 69.126L26.993 68.233L29.7336 65.4925L44.8301 50.396L49.1474 46.0784C49.3973 49.5438 50.847 52.939 53.4966 55.5885C56.2483 58.34 59.804 59.798 63.4075 59.961L63.3905 59.9785L59.0234 64.3455L41.1373 82.2315ZM27.3406 60.8145L23.5678 64.587C20.7005 58.6655 19.0928 52.0205 19.0928 45C19.0928 37.9953 20.6932 31.3645 23.5484 25.4531L27.3226 29.2274C25.244 34.0669 24.0928 39.399 24.0928 45C24.0928 50.617 25.2506 55.9635 27.3406 60.8145ZM60.5677 48.5175C62.5134 50.463 65.6679 50.463 67.6135 48.5175C69.5592 46.5718 69.5592 43.4173 67.6135 41.4717C65.6679 39.526 62.5134 39.526 60.5677 41.4717C58.6221 43.4173 58.6221 46.5718 60.5677 48.5175ZM57.0195 37.9235C53.1143 41.8287 53.1143 48.1604 57.0195 52.0655C60.9248 55.971 67.2564 55.971 71.1617 52.0655C75.0667 48.1604 75.0667 41.8287 71.1617 37.9235C67.2564 34.0182 60.9248 34.0182 57.0195 37.9235Z" fill="#CC9966"/>
</g>
<path d="M150.267 36.019L144.639 36.019H139.01V67.4736H131.588V0H157.786V67.4736H150.267V36.019ZM150.267 28.8128V7.4221L139.01 7.4221V28.8128L150.267 28.8128Z" fill="#003826"/>
<path d="M192.259 0H184.836L184.836 28.8128H173.366L173.366 0H165.944V67.4736H173.366L173.366 36.019H184.836L184.836 67.4736H192.259V0Z" fill="#003826"/>
<path d="M222.684 7.4221V0H200.417V67.4736H222.684V59.4732H207.84L207.84 36.2432H222.684V28.7246H207.84L207.84 7.4221H222.684Z" fill="#003826"/>
<path d="M256.289 57.1599V0H248.867V57.1599C248.867 57.9309 248.642 58.6057 248.193 59.184C247.743 59.7623 247.004 60.0515 245.976 60.0515H241.156C240.128 60.0515 239.389 59.7623 238.939 59.184C238.489 58.6057 238.264 57.9309 238.264 57.1599V0H230.842V57.1599C230.842 58.5735 231.035 59.923 231.421 61.2083C231.806 62.4292 232.384 63.5216 233.156 64.4855C233.991 65.3852 235.051 66.1242 236.336 66.7025C237.686 67.2166 239.292 67.4736 241.156 67.4736H245.976C247.839 67.4736 249.413 67.2166 250.699 66.7025C252.048 66.1242 253.109 65.3852 253.88 64.4855C254.715 63.5216 255.326 62.4292 255.711 61.2083C256.097 59.923 256.289 58.5735 256.289 57.1599Z" fill="#003826"/>
<path d="M131.67 79.9648L134.021 74.5136H134.626L136.96 79.9648H136.371L135.585 78.1373H133.05L132.26 79.9648H131.67ZM133.262 77.6421H135.369L134.323 75.1464L133.262 77.6421ZM140.465 75.9325L142.183 79.9648H141.593L140.179 76.6242L138.764 79.9648H138.174L139.899 75.9325H140.465ZM143.511 75.9325H144.352L145.7 79.2299L147.048 75.9325H147.889V79.9648H147.343V76.5377L145.936 79.9648H145.464L144.057 76.5377V79.9648H143.511V75.9325ZM153.728 75.9325V79.9648H153.213V79.2142H153.198C152.81 79.7775 152.285 80.0592 151.622 80.0592C151.006 80.0592 150.492 79.8535 150.081 79.4421C149.675 79.0386 149.472 78.5382 149.472 77.9408C149.472 77.3486 149.674 76.8482 150.077 76.4394C150.475 76.0386 150.99 75.8381 151.622 75.8381C151.975 75.8381 152.275 75.901 152.522 76.0268C152.771 76.1499 152.996 76.3517 153.198 76.632H153.213V75.9325H153.728ZM151.626 76.3333C151.18 76.3333 150.803 76.4866 150.494 76.7932C150.177 77.1102 150.018 77.4993 150.018 77.9604C150.018 78.4059 150.173 78.7832 150.482 79.0923C150.796 79.4068 151.18 79.564 151.634 79.564C152.071 79.564 152.443 79.4107 152.75 79.1041C153.059 78.795 153.213 78.4163 153.213 77.9683C153.213 77.5072 153.055 77.1141 152.738 76.7892C152.437 76.4853 152.066 76.3333 151.626 76.3333ZM155.15 75.9325H157.776V76.4277H156.734V79.9648H156.188V76.4277H155.15V75.9325ZM159.131 75.9325H159.677V77.4731H160.762C161.22 77.4731 161.573 77.6093 161.819 77.8818C162.026 78.1124 162.13 78.3915 162.13 78.719C162.13 79.091 162.004 79.3923 161.752 79.6229C161.501 79.8509 161.171 79.9648 160.762 79.9648H159.131V75.9325ZM159.677 77.9683V79.4696H160.754C161.005 79.4696 161.206 79.4015 161.355 79.2653C161.507 79.129 161.583 78.9469 161.583 78.719C161.583 78.491 161.507 78.3089 161.355 78.1727C161.206 78.0364 161.005 77.9683 160.754 77.9683H159.677ZM162.668 79.9648V75.9325H163.214V79.9648H162.668ZM167.988 75.9325H170.087V76.4277H168.534V79.9648H167.988V75.9325ZM174.303 75.9325H174.885L172.558 81.3797H171.976L172.644 79.7801L171.061 75.9325H171.709L172.975 79.0727L174.303 75.9325ZM176.208 75.9325H177.049L178.397 79.2299L179.746 75.9325H180.587V79.9648H180.04V76.5377L178.633 79.9648H178.162L176.755 76.5377V79.9648H176.208V75.9325ZM186.426 75.9325V79.9648H185.911V79.2142H185.895C185.508 79.7775 184.982 80.0592 184.319 80.0592C183.704 80.0592 183.19 79.8535 182.779 79.4421C182.373 79.0386 182.17 78.5382 182.17 77.9408C182.17 77.3486 182.371 76.8482 182.775 76.4394C183.173 76.0386 183.688 75.8381 184.319 75.8381C184.673 75.8381 184.973 75.901 185.22 76.0268C185.468 76.1499 185.694 76.3517 185.895 76.632H185.911V75.9325H186.426ZM184.323 76.3333C183.878 76.3333 183.501 76.4866 183.192 76.7932C182.874 77.1102 182.716 77.4993 182.716 77.9604C182.716 78.4059 182.871 78.7832 183.18 79.0923C183.494 79.4068 183.878 79.564 184.331 79.564C184.769 79.564 185.141 79.4107 185.447 79.1041C185.757 78.795 185.911 78.4163 185.911 77.9683C185.911 77.5072 185.753 77.1141 185.436 76.7892C185.134 76.4853 184.764 76.3333 184.323 76.3333ZM188.162 75.9325H188.709V77.65H190.961V75.9325H191.507V79.9648H190.961V78.1452H188.709V79.9648H188.162V75.9325ZM193.802 79.7526V79.9648H193.255V75.9325H193.802V78.9784L196.164 76.1683V75.9325H196.71V79.9648H196.164V76.9425L193.802 79.7526ZM198.096 75.9325H200.722V76.4277H199.68V79.9648H199.134V76.4277H198.096V75.9325ZM206.035 75.9325V79.9648H205.52V79.2142H205.504C205.116 79.7775 204.591 80.0592 203.928 80.0592C203.312 80.0592 202.799 79.8535 202.387 79.4421C201.981 79.0386 201.778 78.5382 201.778 77.9408C201.778 77.3486 201.98 76.8482 202.384 76.4394C202.782 76.0386 203.297 75.8381 203.928 75.8381C204.282 75.8381 204.582 75.901 204.828 76.0268C205.077 76.1499 205.302 76.3517 205.504 76.632H205.52V75.9325H206.035ZM203.932 76.3333C203.487 76.3333 203.109 76.4866 202.8 76.7932C202.483 77.1102 202.325 77.4993 202.325 77.9604C202.325 78.4059 202.479 78.7832 202.788 79.0923C203.103 79.4068 203.487 79.564 203.94 79.564C204.377 79.564 204.749 79.4107 205.056 79.1041C205.365 78.795 205.52 78.4163 205.52 77.9683C205.52 77.5072 205.361 77.1141 205.044 76.7892C204.743 76.4853 204.372 76.3333 203.932 76.3333ZM207.771 81.3797V75.9325H208.286V76.6242H208.302C208.516 76.3517 208.748 76.1552 208.997 76.0346C209.262 75.9036 209.559 75.8381 209.889 75.8381C210.505 75.8381 211.011 76.0373 211.406 76.4355C211.603 76.6346 211.755 76.8692 211.862 77.139C211.97 77.4063 212.024 77.684 212.024 77.9722C212.024 78.5591 211.824 79.0504 211.426 79.4461C211.015 79.8548 210.497 80.0592 209.874 80.0592C209.19 80.0592 208.676 79.7775 208.333 79.2142H208.317V81.3797H207.771ZM209.885 76.3333C209.435 76.3333 209.059 76.484 208.758 76.7853C208.443 77.105 208.286 77.5006 208.286 77.9722C208.286 78.4308 208.439 78.812 208.746 79.1159C209.044 79.4146 209.416 79.564 209.862 79.564C210.318 79.564 210.702 79.4081 211.013 79.0963C211.323 78.7871 211.477 78.4085 211.477 77.9604C211.477 77.5045 211.32 77.1168 211.006 76.7971C210.704 76.4879 210.331 76.3333 209.885 76.3333ZM215.367 75.9325L217.085 79.9648H216.495L215.08 76.6242L213.666 79.9648H213.076L214.801 75.9325H215.367ZM218.412 75.9325H218.959V77.4731H220.043C220.502 77.4731 220.854 77.6093 221.101 77.8818C221.308 78.1124 221.411 78.3915 221.411 78.719C221.411 79.091 221.285 79.3923 221.034 79.6229C220.782 79.8509 220.452 79.9648 220.043 79.9648H218.412V75.9325ZM218.959 77.9683V79.4696H220.036C220.287 79.4696 220.488 79.4015 220.637 79.2653C220.789 79.129 220.865 78.9469 220.865 78.719C220.865 78.491 220.789 78.3089 220.637 78.1727C220.488 78.0364 220.287 77.9683 220.036 77.9683H218.959ZM221.95 79.9648V75.9325H222.496V79.9648H221.95ZM131.835 87.5831H134.017V88.0901H131.835V87.5831ZM138.445 88.7858H139.05C139.348 89.3046 139.802 89.564 140.41 89.564C140.811 89.564 141.16 89.433 141.459 89.1709C141.611 89.0347 141.728 88.8893 141.809 88.7347C141.893 88.5775 141.956 88.381 141.997 88.1452H139.706V87.65H141.99C141.924 87.3617 141.826 87.1312 141.695 86.9582C141.545 86.7617 141.358 86.6084 141.133 86.4984C140.907 86.3884 140.668 86.3333 140.414 86.3333C139.832 86.3333 139.377 86.6084 139.05 87.1587H138.441C138.538 86.9255 138.671 86.7133 138.841 86.522C139.242 86.0661 139.769 85.8381 140.421 85.8381C141.037 85.8381 141.544 86.0386 141.942 86.4394C142.136 86.636 142.287 86.8665 142.394 87.1312C142.504 87.3958 142.559 87.6683 142.559 87.9486C142.559 88.2316 142.506 88.5054 142.398 88.7701C142.291 89.0347 142.14 89.264 141.946 89.4578C141.548 89.8587 141.036 90.0592 140.41 90.0592C139.852 90.0592 139.385 89.9007 139.01 89.5836C138.785 89.3923 138.596 89.1264 138.445 88.7858ZM144.689 89.9648H144.143V85.9325H144.689V89.9648ZM146.626 89.9648L145.003 87.9211L146.583 85.9325H147.224L145.675 87.8779L147.326 89.9648H146.626ZM150.43 85.8381C151.038 85.8381 151.544 86.0399 151.947 86.4434C152.351 86.8495 152.552 87.3526 152.552 87.9526C152.552 88.55 152.349 89.0504 151.943 89.4539C151.54 89.8574 151.041 90.0592 150.446 90.0592C149.851 90.0592 149.352 89.8574 148.948 89.4539C148.542 89.0504 148.339 88.55 148.339 87.9526C148.339 87.3578 148.541 86.8547 148.944 86.4434C149.165 86.2207 149.434 86.0556 149.754 85.9482C149.974 85.8748 150.2 85.8381 150.43 85.8381ZM150.458 86.3333C150.012 86.3333 149.643 86.4814 149.349 86.7774C149.04 87.0892 148.886 87.481 148.886 87.9526C148.886 88.4216 149.037 88.8094 149.341 89.1159C149.637 89.4146 150.006 89.564 150.446 89.564C150.886 89.564 151.254 89.4146 151.55 89.1159C151.854 88.8094 152.006 88.4216 152.006 87.9526C152.006 87.4836 151.852 87.0919 151.542 86.7774C151.252 86.4814 150.89 86.3333 150.458 86.3333ZM154.124 85.9325H154.67V87.65H156.922V85.9325H157.468V89.9648H156.922V88.1452H154.67V89.9648H154.124V85.9325ZM161.142 85.8381C161.75 85.8381 162.256 86.0399 162.659 86.4434C163.063 86.8495 163.265 87.3526 163.265 87.9526C163.265 88.55 163.062 89.0504 162.655 89.4539C162.252 89.8574 161.753 90.0592 161.158 90.0592C160.563 90.0592 160.064 89.8574 159.661 89.4539C159.254 89.0504 159.051 88.55 159.051 87.9526C159.051 87.3578 159.253 86.8547 159.657 86.4434C159.877 86.2207 160.147 86.0556 160.466 85.9482C160.686 85.8748 160.912 85.8381 161.142 85.8381ZM161.17 86.3333C160.724 86.3333 160.355 86.4814 160.061 86.7774C159.752 87.0892 159.598 87.481 159.598 87.9526C159.598 88.4216 159.75 88.8094 160.054 89.1159C160.35 89.4146 160.718 89.564 161.158 89.564C161.598 89.564 161.966 89.4146 162.262 89.1159C162.566 88.8094 162.718 88.4216 162.718 87.9526C162.718 87.4836 162.564 87.0919 162.255 86.7774C161.964 86.4814 161.602 86.3333 161.17 86.3333ZM164.836 85.9325H165.677L167.025 89.2299L168.373 85.9325H169.214V89.9648H168.668V86.5377L167.261 89.9648H166.789L165.382 86.5377V89.9648H164.836V85.9325ZM171.505 89.7526V89.9648H170.958V85.9325H171.505V88.9784L173.867 86.1683V85.9325H174.413V89.9648H173.867V86.9425L171.505 89.7526ZM176.723 89.9648H176.177V85.9325H176.723V89.9648ZM178.661 89.9648L177.038 87.9211L178.618 85.9325H179.258L177.71 87.8779L179.36 89.9648H178.661ZM184.626 85.9325V89.9648H184.111V89.2142H184.095C183.708 89.7775 183.182 90.0592 182.519 90.0592C181.904 90.0592 181.39 89.8535 180.979 89.4421C180.573 89.0386 180.37 88.5382 180.37 87.9408C180.37 87.3486 180.571 86.8482 180.975 86.4394C181.373 86.0386 181.888 85.8381 182.519 85.8381C182.873 85.8381 183.173 85.901 183.419 86.0268C183.668 86.1499 183.894 86.3517 184.095 86.632H184.111V85.9325H184.626ZM182.523 86.3333C182.078 86.3333 181.701 86.4866 181.391 86.7932C181.074 87.1102 180.916 87.4993 180.916 87.9604C180.916 88.4059 181.071 88.7832 181.38 89.0923C181.694 89.4068 182.078 89.564 182.531 89.564C182.969 89.564 183.341 89.4107 183.647 89.1041C183.957 88.795 184.111 88.4163 184.111 87.9683C184.111 87.5072 183.953 87.1141 183.636 86.7892C183.334 86.4853 182.964 86.3333 182.523 86.3333ZM188.249 85.9325L189.966 89.9648H189.377L187.962 86.6242L186.547 89.9648H185.958L187.683 85.9325H188.249ZM191.294 85.9325H191.84V87.4731H192.925C193.384 87.4731 193.736 87.6093 193.982 87.8818C194.189 88.1124 194.293 88.3915 194.293 88.719C194.293 89.091 194.167 89.3923 193.915 89.6229C193.664 89.8509 193.334 89.9648 192.925 89.9648H191.294V85.9325ZM191.84 87.9683V89.4696H192.917C193.169 89.4696 193.369 89.4015 193.519 89.2653C193.67 89.129 193.746 88.9469 193.746 88.719C193.746 88.491 193.67 88.3089 193.519 88.1727C193.369 88.0364 193.169 87.9683 192.917 87.9683H191.84ZM194.831 89.9648V85.9325H195.378V89.9648H194.831ZM199.912 89.9648H199.598L197.979 87.9211L199.555 85.9325H200.195L198.647 87.8779L200.069 89.6779H200.443V90.9985H199.912V89.9648ZM197.66 89.9648H197.114V85.9325H197.66V89.9648ZM210.785 85.9325H211.366L209.04 91.3797H208.458L209.126 89.7801L207.542 85.9325H208.191L209.456 89.0727L210.785 85.9325ZM212.69 85.9325H213.236V87.65H215.488V85.9325H216.035V89.9648H215.488V88.1452H213.236V89.9648H212.69V85.9325ZM218.329 89.7526V89.9648H217.783V85.9325H218.329V88.9784L220.691 86.1683V85.9325H221.237V89.9648H220.691V86.9425L218.329 89.7526ZM223.001 85.9325H224.448C224.864 85.9325 225.176 86.0477 225.383 86.2783C225.553 86.467 225.639 86.7054 225.639 86.9936C225.639 87.3866 225.46 87.6696 225.104 87.8425C225.322 87.9133 225.489 88.0325 225.607 88.2002C225.728 88.3652 225.788 88.5657 225.788 88.8015C225.788 89.15 225.669 89.4316 225.43 89.6465C225.192 89.8587 224.879 89.9648 224.491 89.9648H223.001V85.9325ZM223.548 86.4277V87.65H224.408C224.621 87.65 224.787 87.5923 224.908 87.477C225.031 87.3617 225.092 87.2058 225.092 87.0093C225.092 86.6215 224.864 86.4277 224.408 86.4277H223.548ZM223.548 88.1452V89.4696H224.432C224.683 89.4696 224.881 89.4107 225.025 89.2928C225.17 89.1723 225.242 89.0098 225.242 88.8054C225.242 88.5958 225.171 88.4334 225.029 88.3181C224.888 88.2028 224.689 88.1452 224.432 88.1452H223.548ZM231.36 88.1452H227.756C227.798 88.4491 227.882 88.6967 228.008 88.888C228.149 89.1028 228.331 89.2692 228.554 89.3871C228.777 89.505 229.02 89.564 229.285 89.564C229.919 89.564 230.391 89.26 230.7 88.6522H231.266C231.101 89.0452 230.894 89.3504 230.645 89.5679C230.268 89.8954 229.816 90.0592 229.289 90.0592C228.694 90.0592 228.196 89.8587 227.795 89.4578C227.392 89.057 227.19 88.5591 227.19 87.9644C227.19 87.3539 227.401 86.839 227.823 86.4198C228.213 86.032 228.698 85.8381 229.277 85.8381C229.919 85.8381 230.426 86.0504 230.798 86.4748C230.984 86.6871 231.122 86.9255 231.211 87.1901C231.3 87.4548 231.35 87.7731 231.36 88.1452ZM227.756 87.65H230.771C230.7 87.3434 230.594 87.0984 230.452 86.915C230.154 86.5272 229.764 86.3333 229.285 86.3333C228.913 86.3333 228.584 86.4525 228.299 86.691C228.154 86.8141 228.04 86.9491 227.957 87.0958C227.875 87.2399 227.809 87.4246 227.756 87.65ZM232.943 91.3797V85.9325H233.458V86.6242H233.474C233.689 86.3517 233.921 86.1552 234.169 86.0346C234.434 85.9036 234.731 85.8381 235.062 85.8381C235.677 85.8381 236.183 86.0373 236.579 86.4355C236.775 86.6346 236.927 86.8692 237.035 87.139C237.142 87.4063 237.196 87.684 237.196 87.9722C237.196 88.5591 236.997 89.0504 236.598 89.4461C236.187 89.8548 235.669 90.0592 235.046 90.0592C234.362 90.0592 233.848 89.7775 233.505 89.2142H233.49V91.3797H232.943ZM235.058 86.3333C234.607 86.3333 234.231 86.484 233.93 86.7853C233.615 87.105 233.458 87.5006 233.458 87.9722C233.458 88.4308 233.611 88.812 233.918 89.1159C234.217 89.4146 234.589 89.564 235.034 89.564C235.49 89.564 235.874 89.4081 236.186 89.0963C236.495 88.7871 236.649 88.4085 236.649 87.9604C236.649 87.5045 236.492 87.1168 236.178 86.7971C235.876 86.4879 235.503 86.3333 235.058 86.3333ZM242.135 88.7858H242.737C242.317 89.6347 241.665 90.0592 240.779 90.0592C240.158 90.0592 239.646 89.8587 239.243 89.4578C239.049 89.264 238.897 89.036 238.787 88.774C238.679 88.5094 238.626 88.2369 238.626 87.9565C238.626 87.6735 238.682 87.3997 238.795 87.1351C238.907 86.8678 239.064 86.6333 239.266 86.4316C239.67 86.0359 240.173 85.8381 240.775 85.8381C241.234 85.8381 241.628 85.9495 241.958 86.1722C242.288 86.3923 242.55 86.7211 242.744 87.1587H242.135C242.036 86.9857 241.94 86.8534 241.848 86.7617C241.759 86.6674 241.647 86.5836 241.51 86.5102C241.285 86.3923 241.039 86.3333 240.771 86.3333C240.318 86.3333 239.94 86.4866 239.636 86.7932C239.326 87.0997 239.172 87.481 239.172 87.9369C239.172 88.3928 239.33 88.7792 239.647 89.0963C239.959 89.4081 240.336 89.564 240.779 89.564C241.358 89.564 241.81 89.3046 242.135 88.7858ZM244.913 89.7526V89.9648H244.367V85.9325H244.913V88.9784L247.275 86.1683V85.9325H247.821V89.9648H247.275V86.9425L244.913 89.7526ZM249.208 85.9325H251.833V86.4277H250.792V89.9648H250.246V86.4277H249.208V85.9325ZM257.056 88.1452H253.452C253.494 88.4491 253.578 88.6967 253.703 88.888C253.845 89.1028 254.027 89.2692 254.25 89.3871C254.472 89.505 254.716 89.564 254.981 89.564C255.615 89.564 256.086 89.26 256.396 88.6522H256.962C256.796 89.0452 256.589 89.3504 256.341 89.5679C255.963 89.8954 255.511 90.0592 254.985 90.0592C254.39 90.0592 253.892 89.8587 253.491 89.4578C253.088 89.057 252.886 88.5591 252.886 87.9644C252.886 87.3539 253.097 86.839 253.519 86.4198C253.909 86.032 254.394 85.8381 254.973 85.8381C255.615 85.8381 256.122 86.0504 256.494 86.4748C256.68 86.6871 256.817 86.9255 256.906 87.1901C256.996 87.4548 257.045 87.7731 257.056 88.1452ZM253.452 87.65H256.466C256.396 87.3434 256.289 87.0984 256.148 86.915C255.849 86.5272 255.46 86.3333 254.981 86.3333C254.609 86.3333 254.28 86.4525 253.994 86.691C253.85 86.8141 253.736 86.9491 253.652 87.0958C253.571 87.2399 253.504 87.4246 253.452 87.65ZM258.262 85.9325H260.887V86.4277H259.845V89.9648H259.299V86.4277H258.262V85.9325Z" fill="#003826"/>
</g>
<defs>
<clipPath id="clip0_365_460">
<rect width="280" height="90" fill="white"/>
</clipPath>
<clipPath id="clip1_365_460">
<rect width="90.05" height="90" fill="white" transform="translate(19.0464)"/>
</clipPath>
</defs>
</svg>
